<?xml version="1.0" encoding="UTF-8" standalone="no"?>
<!-- Created with Inkscape (http://www.inkscape.org/) -->

<svg
   xmlns:dc="http://purl.org/dc/elements/1.1/"
   xmlns:cc="http://creativecommons.org/ns#"
   xmlns:rdf="http://www.w3.org/1999/02/22-rdf-syntax-ns#"
   xmlns:svg="http://www.w3.org/2000/svg"
   xmlns="http://www.w3.org/2000/svg"
   xmlns:sodipodi="http://sodipodi.sourceforge.net/DTD/sodipodi-0.dtd"
   xmlns:inkscape="http://www.inkscape.org/namespaces/inkscape"
   width="210mm"
   height="297mm"
   viewBox="0 0 210 297"
   version="1.1"
   id="svg8"
   inkscape:version="0.92.1 r15371"
   sodipodi:docname="drawing.svg">
  <defs
     id="defs2" />
  <sodipodi:namedview
     id="base"
     pagecolor="#ffffff"
     bordercolor="#666666"
     borderopacity="1.0"
     inkscape:pageopacity="0.0"
     inkscape:pageshadow="2"
     inkscape:zoom="0.7"
     inkscape:cx="754.5213"
     inkscape:cy="359.75972"
     inkscape:document-units="mm"
     inkscape:current-layer="layer1"
     showgrid="false"
     inkscape:window-width="1440"
     inkscape:window-height="897"
     inkscape:window-x="-8"
     inkscape:window-y="-8"
     inkscape:window-maximized="1" />
  <metadata
     id="metadata5">
    <rdf:RDF>
      <cc:Work
         rdf:about="">
        <dc:format>image/svg+xml</dc:format>
        <dc:type
           rdf:resource="http://purl.org/dc/dcmitype/StillImage" />
        <dc:title></dc:title>
      </cc:Work>
    </rdf:RDF>
  </metadata>
  <g
     inkscape:label="Layer 1"
     inkscape:groupmode="layer"
     id="layer1">
    <path
       style="fill:#000000;stroke-width:0.90959668"
       d="m 241.04489,258.50352 c -1.01677,-1.09848 -1.81638,-2.43314 -1.77705,-2.9659 0.0428,-0.53245 0.2777,-0.45556 0.52899,0.17246 0.81582,2.03513 2.26562,1.22056 1.62428,-0.91258 l -0.6175,-2.0533 1.95144,2.0533 c 1.07338,1.1293 2.33267,2.05331 2.79854,2.05331 1.83295,0 8.03881,-4.27454 10.59913,-7.30065 1.48637,-1.75668 4.46602,-6.27402 6.62149,-10.03838 2.15548,-3.76435 4.28668,-7.0906 4.736,-7.39154 0.44903,-0.30108 1.40012,-1.67864 2.11293,-3.06153 1.21623,-2.35971 1.20459,-4.30774 -0.075,-12.58958 -0.21345,-1.3803 -0.0142,-2.5096 0.43903,-2.5096 0.45475,0 0.99108,1.33467 1.19217,2.96588 0.25057,2.03312 0.39122,1.53092 0.44689,-1.59701 0.0428,-2.5096 -0.26913,-5.38422 -0.69745,-6.38806 -0.69032,-1.61736 -0.78641,-1.53939 -0.84288,0.6848 -0.12141,4.77107 -1.66747,2.48925 -2.16454,-3.19404 -0.27413,-3.13697 -0.77749,-6.83293 -1.11793,-8.21322 -0.35409,-1.43369 -0.24415,-2.5096 0.25485,-2.5096 0.48115,0 0.91076,1.28825 0.95524,2.86277 0.1,3.52867 1.99456,5.91798 2.0359,2.56709 0.0642,-5.36583 1.67019,1.07957 2.6058,10.47067 1.20438,12.0894 1.20466,12.27888 0.0142,10.56431 -0.70959,-1.02454 -0.80732,-0.64815 -0.38978,1.49526 0.45546,2.33843 -0.0906,3.84599 -2.97544,8.21323 -1.94345,2.94203 -4.90289,7.70196 -6.57644,10.57766 -6.29246,10.81236 -14.79822,17.54404 -19.21769,15.20948 -2.0401,-1.07771 -2.04174,-1.07332 -0.32338,0.87479 2.27684,2.58116 0.24558,2.54401 -2.14513,-0.036 z m 7.85486,0.097 c 4.12791,-2.05668 9.70442,-7.46484 13.37389,-12.97 1.26949,-1.90449 2.3081,-3.6723 2.3081,-3.92854 0,-0.25654 1.63192,-2.88477 3.62649,-5.84117 1.99458,-2.9564 3.6265,-5.80854 3.6265,-6.33798 0,-0.52958 0.40834,-0.96266 0.90662,-0.96266 1.53941,0 1.10151,0.92299 -5.38026,11.341 -7.45287,11.97873 -12.02704,17.2684 -16.59321,19.18883 -4.93096,2.07387 -6.29539,1.71638 -1.86813,-0.48933 z M 39.966625,251.8429 c -11.100773,-3.13274 -17.187639,-8.29981 -22.483885,-19.08644 -1.877351,-3.82349 -3.150692,-7.21621 -2.829662,-7.53935 0.321245,-0.32336 1.224869,0.95728 2.008562,2.84531 1.78776,4.30681 2.678392,3.65721 1.389917,-1.01369 -0.532552,-1.92928 -1.025554,-5.1504 -1.096228,-7.15807 -0.08495,-2.40663 -0.269132,-2.90036 -0.540404,-1.44907 -0.319103,1.70329 -0.595374,1.90974 -1.222585,0.91258 -0.603226,-0.95928 -0.817459,-0.70563 -0.838162,0.99278 -0.02142,1.81007 -0.209166,1.99862 -0.906622,0.91258 -0.483295,-0.75284 -0.856438,-3.01151 -0.829024,-5.01919 0.04283,-2.97767 0.20631,-3.31396 0.897912,-1.82517 0.608224,1.30866 0.76135,0.34061 0.541833,-3.42217 -0.168475,-2.88606 0.01428,-5.24734 0.400484,-5.24734 0.389063,0 0.833808,2.15599 0.988576,4.79105 0.202027,3.44258 0.474728,1.96571 0.968658,-5.24734 0.378355,-5.52111 1.349798,-14.96632 2.159333,-20.98935 0.809535,-6.02303 1.516844,-12.86731 1.571812,-15.20941 0.121362,-5.16355 0.53969,-5.68775 3.101221,-3.88206 1.550039,1.09287 1.985218,2.31378 1.985218,5.56968 0,9.55983 5.50941,26.82441 10.003832,31.34829 0.980222,0.98667 1.350224,1.79398 0.822099,1.79398 -0.528268,0 -0.739505,0.35929 -0.469731,0.79847 0.269845,0.43905 1.415687,0.79675 2.546683,0.7946 1.628636,-0.002 2.597794,-1.16588 4.658682,-5.58953 1.431252,-3.07209 4.936454,-9.69225 7.789318,-14.71144 2.852862,-5.01919 6.284536,-12.04326 7.625981,-15.609 1.341444,-3.56575 3.658829,-8.41932 5.149688,-10.78555 5.235068,-8.30909 9.824149,-16.95302 9.000335,-16.95302 -0.457594,0 -0.598228,-0.61366 -0.312677,-1.36298 0.334093,-0.87607 -0.231296,-1.64272 -1.583163,-2.146 -2.014559,-0.75011 -1.970941,-0.82434 1.038547,-1.76788 9.768537,-3.06283 17.335768,-1.8598 22.090753,3.51192 1.303538,1.47263 2.705805,2.67753 3.116069,2.67753 0.549685,0 5.207445,5.96532 6.927735,8.87279 0.0643,0.11138 2.95324,-0.32192 6.41582,-0.96389 l 6.29553,-1.1671 0.60965,-10.44336 c 0.33553,-5.74394 1.00714,-13.31807 1.49279,-16.83151 0.48544,-3.51343 0.85722,-7.1067 0.82574,-7.98507 -0.0714,-1.95559 -2.74649,-2.09801 -4.28818,-0.22851 -1.43275,1.73771 -3.99007,1.75826 -5.4039,0.0431 -0.8907,-1.08029 -0.45046,-1.98842 2.3822,-4.91098 1.91126,-1.97211 4.77983,-4.24989 6.3747,-5.06173 1.5948,-0.81183 4.65462,-2.66006 6.79967,-4.107185 13.76011,-9.283026 30.16748,-14.188541 40.8178,-12.203715 13.89209,2.588998 17.37524,3.650394 19.27508,5.873497 1.04789,1.226307 2.60258,2.499034 3.45474,2.828137 0.90875,0.350661 1.54939,1.574309 1.54939,2.958629 0,1.298017 1.26221,5.314877 2.80496,8.926257 2.98686,6.99188 3.3116,9.43968 5.47172,41.24425 0.54539,8.03072 1.34765,18.09188 1.78269,22.35822 1.42775,14.00222 1.9623,36.78224 0.9261,39.4691 -1.1297,2.92968 -3.73248,3.38453 -3.73248,0.65246 0,-1.57797 -0.27414,-1.70954 -1.82353,-0.87493 -1.00293,0.54037 -2.32888,0.91676 -2.94653,0.83657 -2.61878,-0.33989 -5.27447,0.1279 -4.83044,0.85121 0.26341,0.4297 -0.45189,0.60144 -1.59023,0.38228 -1.8261,-0.35139 -2.18803,0.12071 -3.07653,4.01025 -0.99036,4.33612 -0.95037,4.48407 2.43233,9.00314 4.97821,6.65041 7.45072,11.9653 7.12762,15.32122 l -0.27912,2.8987 -8.15961,0.56551 c -4.48778,0.31114 -12.81079,0.863 -18.49553,1.22653 l -10.33585,0.66108 0.60036,-4.42055 c 0.33054,-2.43127 1.34795,-7.80854 2.26164,-11.94935 1.29797,-5.8824 1.40605,-7.52878 0.494,-7.52878 -0.64178,0 -1.71545,-0.78785 -2.38549,-1.75073 -0.91982,-1.32195 -2.82553,-1.91016 -7.77947,-2.40151 -4.58172,-0.45486 -6.81972,-1.0964 -7.41845,-2.12775 -0.58181,-1.00184 -0.86622,-1.0895 -0.88492,-0.27234 -0.0142,0.66251 -1.23108,2.96516 -2.70202,5.1172 l -2.67447,3.91275 3.55725,6.74633 c 3.97742,7.54324 4.59715,12.0794 1.85229,13.558 -0.96395,0.51952 -8.40953,1.0471 -16.54586,1.17285 -16.9138,0.26156 -15.79723,1.00779 -12.90674,-8.62633 1.48358,-4.94496 1.48136,-5.46125 -0.0428,-10.34435 -1.4199,-4.54386 -1.82988,-5.0697 -3.53726,-4.53667 -4.56266,1.42449 -10.593847,2.34497 -18.288646,2.79135 -9.220067,0.53461 -10.114482,0.0827 -13.223198,-6.68397 l -1.515132,-3.29795 -0.992929,3.59982 c -1.956378,7.09289 -1.519271,8.31051 5.343362,14.88418 6.173886,5.91395 8.033247,9.68614 5.21308,10.57608 -0.623213,0.19689 -4.03647,1.22761 -7.584791,2.29094 -3.548321,1.06326 -7.220142,2.51908 -8.159604,3.23499 -2.590299,1.97405 -6.376056,1.66974 -7.98456,-0.64168 l -1.392916,-2.00164 -2.174323,2.05611 c -2.823666,2.67012 -10.186655,3.33372 -16.674361,1.50288 z m 9.52946,-1.09524 c -0.866788,-0.22851 -2.498709,-0.23641 -3.62649,-0.0216 -1.127781,0.21844 -0.418331,0.40527 1.576024,0.41533 1.994571,0.008 2.917255,-0.16814 2.050466,-0.39664 z m 16.535299,-1.27186 c 1.064604,-0.75027 0.916903,-0.83297 -0.67961,-0.38085 -1.323455,0.37438 -2.039901,0.1818 -2.039901,-0.54826 0,-0.61941 -0.244859,-0.87974 -0.543973,-0.57845 -0.624642,0.62875 0.339804,2.50127 1.277552,2.48036 0.344803,-0.007 1.238432,-0.44552 1.986431,-0.97237 z m -9.519539,-4.80485 c 5.077874,-5.54151 8.389401,-14.69053 9.543311,-26.36588 1.854722,-18.76653 2.882489,-24.99982 5.121776,-31.0628 2.67882,-7.25286 4.048819,-8.87402 7.499126,-8.87402 3.179746,0 11.787665,3.78045 13.78309,6.05335 4.236499,4.82547 13.008822,19.47001 16.669362,27.82781 2.28034,5.20652 4.71116,10.76299 5.40183,12.34765 2.40876,5.52678 11.39846,5.29109 15.62682,-0.40958 1.38049,-1.86124 3.22422,-3.92073 4.09708,-4.57656 3.03519,-2.28059 1.9289,-4.41667 -3.15426,-6.09022 -5.21144,-1.7158 -9.33136,-4.32671 -10.56851,-6.69762 -0.44046,-0.84346 -1.49971,-6.43801 -2.35458,-12.43229 -1.36436,-9.56694 -2.03633,-11.79729 -5.49877,-18.25161 -2.1694,-4.0441 -5.355,-10.02214 -7.07901,-13.28466 -2.44967,-4.63561 -3.59872,-5.9475 -5.25863,-6.00384 -4.107568,-0.13941 -4.517833,-0.37581 -4.226928,-2.43752 0.207738,-1.47522 0.800183,-1.9701 2.102936,-1.75783 1.190745,0.19401 -0.558965,-2.07753 -5.095505,-6.61621 -7.977137,-7.98048 -9.889325,-8.50927 -14.268455,-3.9458 -3.505418,3.65298 -10.140182,14.44543 -14.148739,23.01528 -6.992773,14.94965 -9.903889,20.8074 -16.567208,33.33657 -8.186661,15.3935 -9.028178,15.97906 -14.208991,9.88669 -4.197377,-4.93598 -7.568157,-11.85018 -9.589355,-19.66999 -1.978864,-7.65591 -2.454734,-6.38138 -3.482502,9.327 -1.82481,27.8904 1.253495,39.76673 12.03331,46.42606 5.660681,3.4969 11.710924,5.21657 16.369822,4.65265 2.826021,-0.34205 4.426888,-1.3124 7.25298,-4.39648 z m 17.218407,0.0216 c 4.146479,-1.49987 6.541604,-1.96277 6.924955,-1.3384 0.708165,1.15316 2.607576,0.13581 2.588086,-1.38655 -0.0072,-0.65317 -0.364789,-0.54036 -0.892701,0.28168 -0.781194,1.21675 -0.892346,1.21675 -1.000141,0 -0.06425,-0.75291 -0.08924,-1.62799 -0.04997,-1.94466 0.04283,-0.31688 -0.823384,-1.34329 -1.9169,-2.28145 -1.679036,-1.4403 -1.797183,-1.45726 -0.759635,-0.10849 0.676041,0.87839 0.841873,1.59703 0.369073,1.59703 -1.136847,0 -4.948731,-4.11114 -4.360712,-4.70303 0.251999,-0.25365 -0.659621,-1.4551 -2.025124,-2.67005 -2.243211,-1.99553 -2.316884,-2.01063 -0.762562,-0.15592 0.946386,1.12929 1.259921,2.0533 0.696743,2.0533 -0.563249,0 -1.679964,-1.27718 -2.481933,-2.83821 -0.801968,-1.56101 -1.016416,-2.56341 -0.476869,-2.22755 0.539691,0.33557 0.981509,-0.007 0.981509,-0.76678 0,-0.75759 -0.551827,-1.70581 -1.227011,-2.1072 -0.674613,-0.40168 -1.493786,-1.34573 -1.819813,-2.09865 -0.326241,-0.75284 -0.423328,0.27378 -0.216304,2.28145 0.438319,4.25033 -1.3952,11.04977 -2.894054,10.73374 -0.611078,-0.12862 -0.796543,0.39593 -0.455452,1.29048 0.332665,0.87285 0.202739,1.27603 -0.30911,0.95763 -1.009134,-0.62802 -0.899769,5.88601 0.127066,7.55818 0.724585,1.18018 0.953168,1.13132 9.961142,-2.12696 z m -12.042376,-1.15689 c -0.575384,-1.03496 -1.047185,-1.1916 -1.477581,-0.49078 -0.347657,0.56623 -0.199885,1.02978 0.32767,1.02978 0.528268,0 0.992359,0.71871 1.031764,1.59701 0.04283,0.89548 0.267704,1.11098 0.517561,0.49078 0.245573,-0.60862 0.06425,-1.79053 -0.399056,-2.62679 z m 58.769704,1.68209 c -4.6918,-0.1897 -7.94765,-0.73868 -8.37234,-1.41126 -0.47472,-0.75213 -0.69959,-0.59498 -0.70887,0.49652 -0.0143,1.42019 0.91504,1.57647 8.37241,1.41127 l 8.38626,-0.18539 z M 29.766478,244.6429 c 0,-0.1897 -0.713948,-0.90813 -1.586589,-1.59702 -1.437961,-1.13512 -1.470014,-1.10286 -0.341947,0.3442 1.184392,1.52012 1.928893,2.00358 1.928893,1.25245 z m 49.618672,-0.20695 c -0.301255,-0.30323 -1.083164,-0.33557 -1.737645,-0.0718 -0.723299,0.29101 -0.508281,0.5073 0.547542,0.55114 0.955738,0.0431 1.491145,-0.17605 1.189889,-0.47929 z m 78.81557,-2.41453 c -0.25129,-0.6273 -0.45761,-0.11425 -0.45761,1.14072 0,1.25477 0.2056,1.76812 0.45761,1.14073 0.25127,-0.62731 0.25127,-1.65406 0,-2.28145 z m 3.47935,2.10123 c -3.31223,-1.34508 6.35728,-2.15771 17.7172,-1.48887 7.47071,0.43977 10.85983,0.32408 11.29588,-0.38586 0.84715,-1.37973 -0.29984,-5.67755 -1.34217,-5.02911 -1.06031,0.65964 -3.01178,-2.912 -2.25998,-4.13629 0.3091,-0.50372 0.0735,-0.8035 -0.52471,-0.66539 -0.59823,0.13796 -1.29325,-0.31976 -1.5449,-1.01699 -0.31481,-0.87228 -0.0642,-1.04013 0.79327,-0.53821 0.68817,0.40167 1.0469,0.49293 0.79761,0.20336 -0.24914,-0.28959 -0.69675,-0.45774 -0.99393,-0.37438 -0.81932,0.23066 -3.53918,-2.23446 -3.53918,-3.20754 0,-0.46994 0.5097,-0.55904 1.13327,-0.19832 0.65819,0.38155 0.81668,0.30826 0.37764,-0.17462 -0.41547,-0.45701 -1.02755,-0.83706 -1.35993,-0.84467 -1.13627,-0.0288 -2.87099,-1.46142 -2.87099,-2.37523 0,-0.50228 0.36978,-0.68264 0.82202,-0.40096 0.45617,0.28383 0.57325,-0.40383 0.26343,-1.54312 -0.36051,-1.32662 -0.65963,-1.56957 -0.84267,-0.68552 -0.23129,1.11422 -1.69859,1.3144 -7.88811,1.07598 -8.36956,-0.32262 -7.89869,-0.64454 -9.09443,6.22467 -1.26927,7.29209 -2.56324,11.08426 -3.3685,9.87225 -0.49971,-0.75183 -0.59037,-0.17605 -0.24271,1.535 0.92796,4.56484 1.1926,5.02164 2.86985,4.95503 1.4057,-0.0574 1.38,-0.15953 -0.19846,-0.80049 z m 24.01757,-2.54969 c 1.74087,-0.21126 3.4686,-0.86436 3.83923,-1.45092 0.4419,-0.69989 0.67891,-0.51737 0.68819,0.53029 0.0142,1.2953 -0.7141,1.56943 -3.83923,1.45094 -3.67225,-0.1394 -3.70459,-0.16384 -0.68819,-0.53031 z m -49.20447,1.93395 c 1.67967,-0.45341 1.97908,-1.11377 1.81325,-4.00112 -0.10925,-1.90204 -0.57396,-3.22745 -1.03256,-2.94527 -0.45902,0.2824 -0.60465,-0.0883 -0.32482,-0.82348 0.28056,-0.73494 -0.0428,-2.34231 -0.72037,-3.57185 -1.47971,-2.68945 -1.72393,-1.58846 -0.27627,1.24672 0.84524,1.65579 0.81183,1.79743 -0.19774,0.83634 -0.66819,-0.63593 -1.27769,-2.07357 -1.35429,-3.19403 -0.0764,-1.12039 -0.36337,-2.6531 -0.63749,-3.40594 -0.27413,-0.75284 -0.66605,-1.98374 -0.87129,-2.7353 -0.27698,-1.01332 -0.67033,-0.80803 -1.5222,0.79452 -0.91311,1.71745 -0.91561,2.0158 -0.0143,1.45359 0.76977,-0.47857 0.9097,-0.33701 0.43333,0.43905 -1.60658,2.61644 -11.3622,5.00819 -11.3622,2.7856 0,-0.50157 -0.71395,-0.88018 -1.58659,-0.84052 -1.10622,0.0503 -1.21238,0.22204 -0.35051,0.56695 0.92761,0.3715 0.96523,0.66325 0.15134,1.16954 -0.5968,0.3715 -2.03134,3.40148 -3.18817,6.73392 l -2.10337,6.05903 10.56523,-0.0144 c 5.81088,-0.007 11.47049,-0.25654 12.57699,-0.55546 z m 3.59394,-1.42843 c -0.28913,-0.72799 -0.504,-0.51162 -0.54754,0.55114 -0.0428,0.96202 0.17489,1.50102 0.47615,1.1977 0.30126,-0.30323 0.33338,-1.09035 0.0714,-1.74906 z m 36.34957,1.33287 c -1.8568,-0.19617 -5.12063,-0.19905 -7.25299,-0.007 -2.13242,0.19257 -0.61322,0.35282 3.37585,0.35642 3.98915,0.003 5.73385,-0.1545 3.87714,-0.35067 z m -61.03605,-11.33249 c -0.30411,-0.96482 -0.0949,-1.69287 0.48758,-1.69287 0.56182,0 0.76905,-0.41031 0.46116,-0.91259 -1.33945,-2.18149 -2.26235,-0.56119 -2.20909,3.87848 0.05,3.99839 0.20131,4.42946 0.92604,2.60545 0.47758,-1.20202 0.62821,-2.94735 0.33481,-3.87847 z m 44.63218,2.69893 c -0.28912,-0.72798 -0.504,-0.51161 -0.54755,0.55116 -0.0428,0.96201 0.1749,1.50101 0.47615,1.1977 0.30126,-0.30324 0.33339,-1.09036 0.0714,-1.74907 z m 0.88778,-4.61994 c -0.25129,-0.62732 -0.45761,-0.11425 -0.45761,1.14072 0,1.25484 0.2056,1.76811 0.45761,1.14073 0.25127,-0.62731 0.25127,-1.65408 0,-2.28145 z m -31.88536,-1.58661 c 0.31768,-0.51737 -0.0428,-0.67042 -0.85308,-0.35856 -1.57067,0.60647 -1.85808,1.2608 -0.55397,1.2608 0.46902,0 1.10244,-0.40599 1.40705,-0.90216 z M 113.48858,226.24 c -0.29554,-0.77448 -0.73129,-1.21251 -0.96894,-0.9733 -0.23772,0.23928 -0.16348,0.87292 0.16562,1.40825 0.89398,1.45596 1.41647,1.17313 0.80339,-0.43473 z m 48.35748,-0.58779 c -0.28913,-0.72797 -0.504,-0.51162 -0.54755,0.55115 -0.0428,0.96201 0.1749,1.50101 0.47615,1.1977 0.30126,-0.30324 0.33339,-1.09035 0.0714,-1.74907 z m -90.034993,-3.59327 c 0.828383,-4.16905 0.646772,-6.30356 -0.339804,-3.99257 -0.720159,1.68683 -0.791546,1.65227 -0.942245,-0.45629 -0.109222,-1.52739 -0.421187,-0.95706 -0.944887,1.72564 -0.429753,2.20392 -0.56539,4.35983 -0.300542,4.79104 0.956666,1.55808 1.972226,0.72719 2.52755,-2.06782 z m 27.085389,1.33481 c -0.623215,-0.25293 -1.643272,-0.25293 -2.266558,0 -0.623213,0.25294 -0.113503,0.46061 1.133279,0.46061 1.246571,0 1.756564,-0.20695 1.133279,-0.46061 z m -16.621393,-0.56622 c -0.207737,-0.14228 -1.193744,-0.86063 -2.191028,-1.59703 -1.677251,-1.23837 -1.719941,-1.21897 -0.56896,0.25797 0.684609,0.87838 1.670328,1.59701 2.191029,1.59701 0.520416,0 0.776697,-0.11639 0.568959,-0.25795 z m 53.566267,-2.0232 c 1.17111,-1.25483 1.92532,-2.28145 1.67596,-2.28145 -0.24914,0 -1.41147,1.02662 -2.58258,2.28145 -1.17112,1.25483 -1.92533,2.28144 -1.67604,2.28144 0.24914,0 1.41155,-1.02661 2.58266,-2.28144 z m -44.359192,-6.30831 c 1.96573,-4.22244 3.830374,-9.66372 4.143551,-12.09168 0.588234,-4.5586 2.053964,-8.57072 2.109932,-5.77477 0.01428,0.75766 0.870929,1.90765 1.901767,2.55565 1.798182,1.13038 1.792402,1.06672 -0.144204,-1.56978 -1.110078,-1.51144 -2.341443,-2.54704 -2.736287,-2.30135 -0.394773,0.24575 -2.132062,-1.77846 -3.860428,-4.4981 -4.142194,-6.51775 -5.106141,-7.02513 -5.106141,-2.68737 0,4.07041 -2.368642,12.80243 -5.831583,21.49818 -2.847652,7.15068 -2.757347,9.77143 0.391918,11.36938 4.451661,2.25889 5.352072,1.618 9.131546,-6.50016 z m 11.556222,6.27295 c 3.34037,-0.99852 4.68096,-1.85541 4.63984,-2.96588 -0.0828,-2.23834 -6.54489,-15.11945 -7.766827,-15.48196 -0.566104,-0.16815 -1.313175,1.24541 -1.668828,3.15774 -0.599656,3.22363 -2.564172,8.20071 -5.599359,14.18473 l -1.272913,2.50959 h 3.485215 c 1.916829,0 5.599142,-0.63162 8.182872,-1.40422 z m 58.1884,0.14156 c 0,-0.19258 -0.81653,-0.5648 -1.81453,-0.82743 -0.99793,-0.26299 -1.58581,-0.1056 -1.30638,0.34994 0.48828,0.79481 3.12091,1.19771 3.12091,0.47785 z m 14.3033,-0.31329 c -1.8568,-0.19617 -5.12063,-0.19905 -7.25298,-0.007 -2.13243,0.19257 -0.61322,0.35282 3.37584,0.35641 3.98914,0.003 5.73386,-0.15449 3.87714,-0.35066 z m 3.19695,-1.84622 c 0.20988,-0.37653 0.66533,-1.87575 1.01178,-3.33178 l 0.63034,-2.64742 -9.71956,0.63234 c -5.34572,0.34779 -10.06072,0.84475 -10.47778,1.10423 -0.4169,0.2594 -0.7582,1.47406 -0.7582,2.69929 0,2.21944 0.0356,2.22755 9.466,2.22755 5.20636,0 9.63776,-0.30826 9.84749,-0.68406 z m -85.524716,-3.42218 c 0,-0.50227 -0.395488,-0.29676 -0.878853,0.45629 -0.483295,0.75284 -0.878852,1.77954 -0.878852,2.28145 0,0.50228 0.395487,0.29677 0.878852,-0.45628 0.483294,-0.75292 0.878853,-1.77954 0.878853,-2.28146 z m 62.297396,1.19778 c -0.28912,-0.72798 -0.504,-0.51162 -0.54755,0.55115 -0.0428,0.96201 0.17491,1.50101 0.47617,1.1977 0.30124,-0.30324 0.33337,-1.09035 0.0714,-1.74907 z m -87.030133,-3.25108 c -0.227727,-0.87839 -0.414763,-0.15953 -0.414763,1.59701 0,1.75676 0.186322,2.47539 0.414763,1.59702 0.22844,-0.87838 0.22844,-2.31566 0,-3.19403 z m 9.57108,2.66171 c 0.264847,-1.01799 -0.04997,-1.6731 -0.800898,-1.6731 -1.420614,0 -1.415688,-0.0144 -0.685321,1.90262 0.707451,1.8557 0.954238,1.81754 1.486075,-0.22923 z m 74.799873,1.04401 c -0.87264,-0.22922 -2.30054,-0.22922 -3.17319,0 -0.87264,0.22922 -0.15848,0.41748 1.5866,0.41748 1.7452,0 2.45923,-0.18754 1.58659,-0.41748 z m -11.55944,-2.28454 c 1.88762,-0.29964 1.72093,-0.43401 -0.99665,-0.80523 -2.84344,-0.38802 -3.20622,-0.22635 -2.82074,1.25749 0.24344,0.93666 0.69175,1.29903 0.99665,0.80531 0.30482,-0.49366 1.57409,-1.05968 2.82074,-1.25757 z M 18.637434,208.27264 c -0.202025,-1.6402 -0.371214,-0.51808 -0.376211,2.49329 -0.0051,3.01151 0.159907,4.35351 0.366931,2.9822 0.207025,-1.37124 0.211308,-3.83521 0.0072,-5.47549 z m 139.416146,4.77474 c 0.3084,-0.50228 -0.0757,-0.91258 -0.85315,-0.91258 -0.77734,0 -1.41341,0.41102 -1.41341,0.91258 0,0.50228 0.38408,0.91258 0.85309,0.91258 0.46901,0 1.1053,-0.41102 1.41347,-0.91258 z m -77.544004,-3.19403 c 0,-0.50228 -0.395487,-0.29677 -0.878852,0.45629 -0.483294,0.75291 -0.878853,1.77953 -0.878853,2.28145 0,0.50228 0.395487,0.29677 0.878853,-0.45629 0.483294,-0.75292 0.878852,-1.77953 0.878852,-2.28145 z m 26.430474,0.75292 c -1.06874,-1.85003 -1.32681,-1.25793 -0.45188,1.03696 0.31054,0.81557 0.75628,1.29062 0.98972,1.05564 0.23344,-0.23496 -0.007,-1.17665 -0.53755,-2.0926 z m 43.67944,1.21826 c 0.35052,-0.91912 4.14719,-1.36593 15.28295,-1.7985 16.14353,-0.62731 23.78549,-1.68526 29.20952,-4.04418 l 3.51334,-1.52796 -0.61036,-11.44527 c -0.33552,-6.29486 -0.96316,-15.14121 -1.39477,-19.65848 -0.43189,-4.51728 -1.22387,-14.78381 -1.76049,-22.81451 -2.05696,-30.78033 -2.39505,-33.45405 -5.01991,-39.69726 -6.00355,-14.27922 -8.26804,-16.733486 -15.46734,-16.763593 -4.50613,-0.02155 -24.09782,3.829029 -26.17176,5.14027 -1.06346,0.67258 -5.80939,2.810613 -10.54645,4.751663 -10.9937,4.50485 -12.69272,5.62998 -12.69272,8.40552 0,1.23005 -0.42975,3.04543 -0.95581,4.0341 -1.27384,2.39578 -3.5374,19.82176 -3.5596,27.40285 l -0.0143,6.0497 16.54587,-3.4709 c 9.10021,-1.90902 23.38401,-4.93935 31.74171,-6.73412 16.31114,-3.50273 19.25416,-3.82997 20.22505,-2.24861 0.91504,1.49023 -1.06504,2.38506 -6.7749,3.06167 -2.79063,0.33054 -12.00948,2.18717 -20.48639,4.12558 -8.47693,1.9384 -21.04101,4.64403 -27.92021,6.01261 -9.82786,1.95515 -12.70742,2.86399 -13.44007,4.24199 -0.55468,1.04264 -0.81325,6.87755 -0.6382,14.39038 0.26556,11.41495 0.49114,12.90483 2.33394,15.41025 2.04012,2.77375 2.84923,7.10894 1.12686,6.03748 -1.66626,-1.03661 -2.02234,2.23123 -0.89706,8.23406 1.25706,6.70581 3.90711,9.76935 9.78424,11.31054 1.84723,0.48431 4.78655,1.27955 6.53183,1.76689 4.85721,1.35636 11.51183,1.26129 12.05829,-0.17246 z m -20.2179,-5.02826 c 0,-0.92853 1.20317,-3.36015 2.67375,-5.40355 3.18311,-4.423 5.43239,-11.68203 5.726,-18.47938 0.17347,-4.0135 -0.0735,-4.99319 -1.3253,-5.25273 -1.18719,-0.24647 -1.49764,0.2673 -1.35994,2.24817 0.25771,3.70623 -2.26177,3.31022 -3.35515,-0.52743 -0.77627,-2.72429 -0.62678,-3.30217 1.24871,-4.83092 1.25128,-1.01987 2.72358,-1.48097 3.56767,-1.11737 5.72058,2.46447 8.90897,3.15717 12.06279,2.62083 4.62935,-0.78726 14.92829,-7.87119 18.59055,-12.78712 3.24393,-4.35445 13.07464,-9.91077 16.60548,-9.3855 1.12607,0.16743 2.81717,1.34653 3.75792,2.61997 3.6943,5.00066 6.95928,29.52852 5.06708,38.06631 -0.52184,2.35396 -0.36765,2.96589 0.7465,2.96589 0.82824,0 1.28312,0.63019 1.10951,1.53766 -0.41834,2.18517 -6.70386,3.58264 -23.80992,5.29333 -8.00812,0.80091 -20.272,2.06164 -27.253,2.80169 -15.38567,1.63108 -14.05265,1.66622 -14.05265,-0.37006 z m 5.64919,-0.79839 c -1.84445,-0.22994 -2.73315,-0.74494 -2.35315,-1.36384 0.3655,-0.59498 0.18989,-0.73294 -0.43618,-0.34348 -2.09344,1.30233 -0.96816,2.36524 2.35315,2.22253 3.3717,-0.14515 3.37528,-0.14875 0.43618,-0.51521 z m 10.91395,-0.8497 c -0.61393,-0.25007 -1.8378,-0.26516 -2.71987,-0.036 -0.88213,0.23138 -0.37978,0.43617 1.116,0.45414 1.49593,0.0216 2.21767,-0.17102 1.60387,-0.42037 z m 6.55573,-2.18567 c 14.74841,-1.22703 32.19511,-3.31483 34.21259,-4.09404 1.64014,-0.63377 2.05603,-1.61699 3.0389,-7.18581 0.57468,-3.25605 0.47972,-3.50733 -1.08488,-2.86235 -4.11334,1.69589 -4.88812,1.65587 -4.88812,-0.25222 0,-2.6265 -1.62064,-3.36296 -1.97508,-0.89755 -0.21416,1.48937 -1.4341,2.43794 -4.59615,3.57371 -2.36749,0.85043 -4.10593,1.22264 -3.86306,0.82714 0.63892,-1.04105 -1.70474,-2.76295 -2.74215,-2.01443 -0.48186,0.34779 -0.87621,1.2483 -0.87621,2.00115 0,1.03422 -1.10808,1.36886 -4.53311,1.36886 -2.51842,0 -4.46594,-0.40527 -4.38199,-0.91258 0.0829,-0.50228 -0.7959,-0.91258 -1.95337,-0.91258 -1.15741,0 -1.94176,0.26516 -1.74287,0.58851 0.19918,0.32407 -0.28126,0.8372 -1.06738,1.14072 -2.15762,0.8334 -10.17245,0.66181 -10.71979,-0.22994 -0.26413,-0.4297 0.28628,-3.47923 1.2231,-6.77616 0.93667,-3.29692 1.46858,-6.23048 1.18196,-6.51891 -0.28627,-0.28814 -1.61321,-0.52456 -2.9481,-0.52456 -2.32809,0 -2.49064,0.32552 -3.98472,7.98509 -0.87084,4.46459 -2.71072,10.12914 -4.17302,12.84812 l -2.61536,4.86298 3.35136,-0.51737 c 1.84323,-0.28456 8.65511,-0.95872 15.13745,-1.49807 z m 2.05048,1.24463 c -0.8668,-0.22851 -2.49872,-0.23641 -3.6265,-0.0216 -1.12778,0.21844 -0.41832,0.40526 1.57602,0.41533 1.99459,0.007 2.91727,-0.16814 2.05048,-0.39666 z m 11.77553,-0.9146 c -0.87265,-0.22922 -2.30054,-0.22922 -3.17318,0 -0.87264,0.22922 -0.15849,0.41749 1.58659,0.41749 1.74521,0 2.45923,-0.18755 1.58659,-0.41749 z m 7.70629,-0.88794 c -0.62322,-0.25293 -1.64327,-0.25293 -2.26656,0 -0.62322,0.25295 -0.11353,0.46062 1.13328,0.46062 1.24656,0 1.75657,-0.20695 1.13328,-0.46062 z m 7.25297,-0.91257 c -0.6232,-0.25294 -1.64327,-0.25294 -2.26654,0 -0.62322,0.25294 -0.11353,0.4606 1.13328,0.4606 1.24656,0 1.75655,-0.20694 1.13326,-0.4606 z m -44.82627,-3.52637 c -0.27913,-0.28096 -0.78605,0.22563 -1.12656,1.12549 -0.49188,1.30061 -0.38764,1.40545 0.50756,0.5109 0.61964,-0.6194 0.89812,-1.35543 0.61893,-1.63639 z m 28.03485,-5.5464 c -0.30126,-0.30324 -1.08324,-0.33558 -1.73765,-0.0718 -0.72331,0.29102 -0.50829,0.50731 0.54753,0.55114 0.95568,0.0431 1.49116,-0.17604 1.1899,-0.47928 z m 27.15691,-1.4449 c -0.28911,-0.72798 -0.50399,-0.51162 -0.54754,0.55114 -0.0428,0.96202 0.17489,1.50101 0.47615,1.19771 0.30126,-0.30323 0.33338,-1.09036 0.0714,-1.74906 z m -31.7318,-2.73774 c -0.28911,-0.72798 -0.50399,-0.51162 -0.54754,0.55114 -0.0428,0.96202 0.17491,1.50102 0.47617,1.19771 0.30124,-0.30324 0.33337,-1.09035 0.0714,-1.74907 z m 16.60655,1.64638 c 0,-0.19258 -0.81653,-0.5648 -1.81454,-0.82743 -0.99792,-0.26299 -1.5858,-0.10494 -1.30639,0.34994 0.48829,0.79481 3.12093,1.19771 3.12093,0.47785 z m -18.69913,-3.41448 c 1.17461,-5.91159 0.95324,-6.31319 -2.76541,-5.01733 -2.5938,0.90389 -3.58766,1.90427 -4.48565,4.51512 l -1.15354,3.35399 h 3.91896 c 3.66404,0 3.95588,-0.1854 4.48564,-2.85178 z m 10.36477,2.26291 c 2.03491,-0.54827 2.07488,-0.7655 1.47094,-7.97258 -0.34123,-4.07478 -0.78063,-7.69017 -0.97587,-8.03423 -0.19488,-0.34419 -1.30646,0.33198 -2.46944,1.50282 -1.58809,1.59852 -2.26299,3.58823 -2.71137,7.99326 -0.73715,7.24258 -0.29698,7.85409 4.68574,6.51073 z m 10.82758,-2.72409 c 2.63099,-0.70995 2.70922,-4.4281 0.24913,-11.83115 -2.24806,-6.76444 -2.25699,-7.67041 -0.0757,-7.67041 2.30662,0 2.82853,0.96295 5.01477,9.25141 1.01115,3.83342 2.24644,7.02327 2.74508,7.0886 2.93096,0.38371 0.0793,-19.30891 -3.23294,-22.32618 -1.37514,-1.25267 -1.52563,-1.80935 -0.64177,-2.37407 0.63534,-0.406 0.7328,-0.74393 0.21702,-0.75163 -0.51542,-0.007 -3.10779,2.19796 -5.76019,4.90142 l -4.8226,4.91529 1.08032,8.54528 c 1.50627,11.91435 1.2108,11.33481 5.22699,10.25144 z m 5.9792,-0.83304 c -0.29554,-0.77447 -0.73129,-1.2125 -0.96894,-0.9733 -0.23772,0.23929 -0.16348,0.87292 0.16562,1.40825 0.89391,1.45596 1.41647,1.17313 0.8034,-0.43473 z m -24.19119,-3.3828 c -0.25128,-0.62731 -0.45759,-0.11425 -0.45759,1.14073 0,1.25483 0.2056,1.76811 0.45759,1.14073 0.25129,-0.62731 0.25129,-1.65408 0,-2.28146 z m 11.78609,-0.91257 c -0.25127,-0.62732 -0.45759,-0.11426 -0.45759,1.14072 0,1.25484 0.2056,1.76811 0.45759,1.14072 0.25129,-0.6273 0.25129,-1.65407 0,-2.28144 z m 10.89833,0.0575 c -0.28912,-0.72798 -0.504,-0.51162 -0.54755,0.55114 -0.0428,0.96201 0.1749,1.50101 0.47616,1.1977 0.30125,-0.30323 0.33338,-1.09035 0.0714,-1.74906 z m -33.04939,-1.12615 c 0.40333,-2.12265 0.19702,-2.22159 -5.22109,-2.50959 -3.50598,-0.1861 -5.50841,0.0431 -5.2911,0.61293 0.19203,0.50228 2.38534,0.77031 4.87341,0.59642 4.08873,-0.28599 4.52384,-0.13222 4.52384,1.59701 0,2.57974 0.59895,2.42042 1.11494,-0.29677 z m 41.20899,0.21342 c -0.28911,-0.72798 -0.50399,-0.51162 -0.54754,0.55115 -0.0428,0.96201 0.17489,1.50101 0.47615,1.1977 0.30126,-0.30324 0.33338,-1.09035 0.0714,-1.74907 z m -35.5833,-0.71893 c 1.27906,-0.48934 2.3256,-1.46601 2.3256,-2.17014 0,-1.06664 -0.5297,-1.03869 -3.17319,0.16742 -4.83143,2.20428 -4.11327,3.9011 0.84759,2.00258 z m 4.75814,-2.93139 c -0.28913,-0.72798 -0.504,-0.51162 -0.54755,0.55114 -0.0428,0.96201 0.1749,1.50101 0.47615,1.19771 0.30126,-0.30324 0.33339,-1.09036 0.0714,-1.74906 z m 10.86062,-1.88221 c -0.25129,-0.62732 -0.4576,-0.11425 -0.4576,1.14072 0,1.25476 0.2056,1.76811 0.4576,1.14073 0.25128,-0.62731 0.25128,-1.65408 0,-2.28145 z M 161.5867,173.9587 c 0.25699,-0.4182 -0.10925,-0.76052 -0.81325,-0.76052 -0.70388,0 -1.07002,0.34203 -0.81325,0.76052 0.257,0.41822 0.6225,0.76047 0.81325,0.76047 0.1906,0 0.55611,-0.34204 0.81325,-0.76047 z m 4.70108,-2.30581 c 0.18704,-1.28422 -0.0214,-1.38705 -1.05403,-0.52311 -1.55026,1.29507 -1.70795,2.97027 -0.23272,2.47539 0.57966,-0.19473 1.15897,-1.07296 1.28711,-1.95213 z m -2.22551,-1.26848 c 1.12772,-1.44741 1.09566,-1.47968 -0.34265,-0.3442 -1.51021,1.19218 -1.99051,1.94158 -1.24428,1.94158 0.18846,0 0.90218,-0.71865 1.58659,-1.59702 z m 5.35293,-1.87905 c 0.0286,-1.34991 0.19562,-1.32131 1.35994,0.2285 0.73208,0.9743 1.33109,1.4173 1.33109,0.98444 0,-0.43258 -0.68175,-1.54507 -1.51456,-2.47159 -1.42731,-1.58753 -1.36207,-1.85454 1.13328,-4.63476 l 2.64784,-2.95015 -2.88206,2.61817 c -1.58516,1.44001 -2.85657,3.28795 -2.82545,4.10661 0.0286,0.81867 -0.27128,2.27449 -0.67176,3.23514 -0.51542,1.23536 -0.41762,1.55355 0.33195,1.0869 0.58324,-0.36287 1.07367,-1.35428 1.08953,-2.20305 z m 6.00598,-4.89488 c 2.37079,-2.63686 0.524,-3.20841 -2.03746,-0.63019 -1.69788,1.70911 -1.92732,2.30912 -0.88292,2.30912 0.77611,0 2.0903,-0.75544 2.92038,-1.67872 z m 3.03142,-5.8383 c 0,-0.25077 -0.81597,-0.0144 -1.81325,0.52025 -0.99729,0.53749 -1.81325,1.18211 -1.81325,1.43311 0,0.25078 0.81596,0.0144 1.81325,-0.52025 0.99728,-0.53748 1.81325,-1.18211 1.81325,-1.43311 z m 9.17873,0.27738 c -0.89542,-0.89455 -0.99957,-0.78971 -0.50757,0.5109 0.34052,0.9 0.84745,1.40644 1.12656,1.12548 0.27913,-0.28095 5.8e-4,-1.01734 -0.61892,-1.63638 z m -51.18557,6.9356 c -1.02883,-1.03559 -0.60821,-8.89291 0.55755,-10.42167 2.63106,-3.44933 8.5593,-4.70647 10.58849,-2.24537 0.60108,0.72927 1.09323,3.28492 1.09323,5.67934 0,3.38072 -0.44475,4.71559 -1.98928,5.97474 -1.95602,1.59436 -8.98271,2.28879 -10.25012,1.01296 z m 5.56525,-3.52406 c -0.73659,-1.6272 -1.25122,-1.9706 -1.74594,-1.16487 -0.38763,0.6309 -0.21558,1.49527 0.38408,1.93021 0.68531,0.49725 0.33408,0.62157 -0.95447,0.33773 -1.12192,-0.24791 -2.03989,-0.0776 -2.03989,0.37724 0,0.45486 1.21515,0.82714 2.70045,0.82714 2.55946,0 2.6459,-0.12071 1.65597,-2.30731 z m 4.62148,-1.73606 c -0.23843,-0.24 -0.9738,0.46851 -1.63392,1.57531 -1.14684,1.92217 -1.12749,1.94157 0.43404,0.43618 0.89862,-0.86638 1.43875,-1.77171 1.20024,-2.01178 z m -0.66247,-6.20297 c -0.60109,-0.60502 -1.76642,-0.59353 -3.47658,0.036 -1.67632,0.61437 -2.00114,0.96827 -0.93247,1.0152 0.90206,0.0431 1.38799,0.48287 1.07982,0.98464 -0.3084,0.50228 0.27983,0.91259 1.30639,0.91259 1.02676,0 1.92232,0.51305 1.99022,1.14072 0.0714,0.62731 0.30624,0.16958 0.5304,-1.01785 0.22345,-1.18722 -2.1e-4,-2.56801 -0.49757,-3.0685 z m 21.29007,3.10199 c -1.69903,-1.88969 -2.02719,-8.4114 -0.56183,-11.16725 0.94061,-1.76919 4.50122,-2.50205 4.50122,-0.92653 0,0.46132 -0.70604,2.07739 -1.5696,3.59141 -1.88007,3.29735 -0.9708,4.72845 1.54703,2.43487 1.47466,-1.34337 2.05175,-1.43254 3.17875,-0.49079 1.90205,1.58897 1.72215,4.22963 -0.43618,6.40229 -2.25856,2.2734 -4.70416,2.33074 -6.65918,0.15592 z m 5.24277,-1.59874 c 0.7882,-0.79336 1.16698,-1.87582 0.84166,-2.40555 -0.36193,-0.58922 -1.16554,-0.19689 -2.06995,1.00988 -1.21902,1.62677 -1.70574,1.76868 -2.77306,0.8086 -1.10978,-0.99838 -1.12321,-0.93665 -0.0942,0.43257 1.48165,1.97089 2.26163,2.00035 4.09529,0.1545 z m -5.2083,-5.61266 c -0.22986,-0.88793 -0.43332,-0.38228 -0.45187,1.12334 -0.0214,1.50576 0.1699,2.23222 0.41761,1.6144 0.24842,-0.61797 0.26342,-1.84988 0.0358,-2.73774 z M 81.338101,201.6405 c 1.435605,-4.51727 2.881061,-10.11951 3.212014,-12.44939 0.548258,-3.85935 0.385494,-4.40726 -1.827807,-6.15992 -3.097795,-2.45276 -4.450376,-2.42466 -6.244418,0.12934 -2.837943,4.04051 -4.297535,11.14965 -3.174393,15.46106 4.162612,15.97885 3.942167,15.89607 8.034604,3.0187 z m 90.541259,9.86565 c -0.87264,-0.22923 -2.30053,-0.22923 -3.17317,0 -0.87265,0.22922 -0.15849,0.41748 1.58658,0.41748 1.74522,0 2.45924,-0.18754 1.58659,-0.41748 z m -43.29123,-0.70779 c 0,-0.23354 -0.91797,-0.87199 -2.0399,-1.41924 -1.95887,-0.95549 -1.97001,-0.93867 -0.27984,0.42395 1.8498,1.49174 2.31996,1.69337 2.31996,0.99507 z m 55.54791,-0.17462 c -0.61392,-0.25006 -1.83779,-0.26515 -2.71987,-0.036 -0.88213,0.23138 -0.37977,0.43617 1.116,0.45413 1.49593,0.0216 2.21767,-0.17101 1.60387,-0.42036 z M 37.925867,209.9648 c 0,-0.1897 -0.713947,-0.90813 -1.586588,-1.59701 -1.437961,-1.13513 -1.470015,-1.10286 -0.341948,0.34491 1.184392,1.52012 1.928894,2.00358 1.928894,1.25245 z m 36.341863,-2.48883 c -0.477584,-1.20223 -0.894487,-1.7061 -0.926112,-1.11974 -0.0771,1.4242 0.979367,4.12622 1.433963,3.66871 0.198458,-0.19976 -0.02855,-1.34681 -0.507566,-2.54897 z m 8.054878,-2.18581 c 0,-0.50228 -0.395487,-0.29677 -0.878853,0.45629 -0.483294,0.75284 -0.878852,1.77953 -0.878852,2.28145 0,0.50228 0.395487,0.29677 0.878852,-0.45629 0.483294,-0.75284 0.878853,-1.77953 0.878853,-2.28145 z m 117.734232,-1.36887 c -0.13632,-3.73023 -0.18204,-3.80761 -0.49686,-0.84461 -0.27055,2.55322 -0.87807,3.46034 -2.79411,4.17445 l -2.44795,0.91243 2.94446,-0.0646 c 2.89848,-0.0647 2.94209,-0.13222 2.7941,-4.17445 z M 69.35148,202.78057 c -0.251285,-0.62732 -0.457595,-0.11425 -0.457595,1.14072 0,1.25484 0.205596,1.76811 0.457595,1.14073 0.251283,-0.62731 0.251283,-1.65408 0,-2.28145 z m 2.291755,-4.3487 c -0.70174,-1.91003 -0.832022,-1.95005 -1.41012,-0.4333 -0.377639,0.98955 -0.172757,1.95896 0.501142,2.37824 1.582235,0.98429 1.808106,0.50156 0.909264,-1.94465 z m 13.139675,-1.98231 c -0.28912,-0.72798 -0.503996,-0.51163 -0.547543,0.55114 -0.04283,0.96201 0.1749,1.50101 0.476155,1.19771 0.301256,-0.30324 0.333381,-1.09036 0.07139,-1.74906 z m 0.887776,-4.61996 c -0.251283,-0.62731 -0.457594,-0.11425 -0.457594,1.14072 0,1.25484 0.205597,1.76811 0.457594,1.14073 0.251285,-0.62731 0.251285,-1.65406 0,-2.28145 z m -66.164535,0.0574 c -0.28912,-0.72798 -0.503996,-0.51162 -0.547543,0.55114 -0.04283,0.96202 0.174899,1.50101 0.476155,1.19771 0.301256,-0.30323 0.333381,-1.09036 0.07139,-1.74906 z m 101.072939,-5.83426 c -0.83081,-1.1214 -1.66526,-1.60966 -1.85437,-1.08496 -0.18918,0.52455 0.30411,1.31886 1.09559,1.76479 0.83502,0.47066 1.22908,1.47141 0.93832,2.38378 -0.40263,1.26468 -0.32196,1.31843 0.41476,0.27378 0.65248,-0.9248 0.48115,-1.88574 -0.59466,-3.33767 z M 87.846153,183.81 c 0.439747,-0.27306 -0.515419,-0.98099 -2.12164,-1.57244 -2.47251,-0.91035 -2.67725,-0.88909 -1.334234,0.13868 0.894058,0.68408 1.645912,2.56413 1.722439,4.30731 0.134925,3.08035 0.137784,3.08186 0.535408,0.35856 0.219874,-1.5041 0.758851,-2.95848 1.198312,-3.23189 z m -67.43338,0.77641 c -0.28912,-0.72798 -0.503996,-0.51163 -0.547543,0.55114 -0.04283,0.96201 0.1749,1.50101 0.476155,1.19771 0.301256,-0.30323 0.333381,-1.09036 0.07139,-1.74906 z m 71.910454,1.6517 c 0,-0.1897 -0.713948,-0.90813 -1.58659,-1.59702 -1.437961,-1.13511 -1.470013,-1.10286 -0.341946,0.34491 1.184392,1.52013 1.928893,2.00358 1.928893,1.25247 z m -16.289296,-4.67464 c 1.230293,-1.68827 1.211019,-1.73124 -0.256282,-0.5727 -0.872643,0.68911 -1.58659,1.6813 -1.58659,2.20543 0,0.52383 0.115645,0.7818 0.256282,0.57269 0.141348,-0.2091 0.85501,-1.20158 1.58659,-2.20542 z m 42.052369,-1.69453 c -0.3141,-0.82469 -0.93946,-1.4995 -1.38892,-1.4995 -0.44974,0 -0.3191,0.80264 0.28912,1.78362 1.28327,2.06847 1.93254,1.90069 1.09959,-0.28383 z m 80.93107,0.15449 c -0.28913,-0.72798 -0.504,-0.51162 -0.54755,0.55114 -0.0428,0.96202 0.1749,1.50102 0.47616,1.19772 0.30126,-0.30325 0.33338,-1.09036 0.0714,-1.74907 z M 80.29156,179.64331 c -0.301257,-0.30323 -1.083165,-0.33557 -1.737647,-0.0718 -0.723299,0.29102 -0.508279,0.5073 0.547544,0.55114 0.955737,0.0431 1.491143,-0.17606 1.189887,-0.47929 z m -56.975952,-7.82484 -0.104222,-3.94363 -0.645343,3.19402 c -0.354797,1.75676 -0.973727,4.20154 -1.375283,5.43294 -0.675327,2.07056 -0.61893,2.1269 0.749498,0.74961 0.955023,-0.96129 1.442601,-2.88748 1.375283,-5.43294 z m 92.579812,-7.46267 v -9.45074 l -4.49728,0.89504 -4.49728,0.89505 4.27062,8.53737 c 2.34887,4.69555 4.37264,8.54563 4.49728,8.55569 0.12493,0.007 0.2263,-4.23444 0.2263,-9.43241 z m 2.71986,-2.78359 c 0,-10.3529 -0.0143,-10.40622 -2.0399,-9.84717 -1.65876,0.457 -1.74342,0.62443 -0.45331,0.8941 1.38849,0.29031 1.58659,1.51992 1.58659,9.84711 0,5.2334 0.20417,9.5152 0.45331,9.5152 0.24914,0 0.45331,-4.68413 0.45331,-10.40924 z m 79.49546,3.85008 c -0.28912,-0.72798 -0.504,-0.51162 -0.54753,0.55114 -0.0428,0.96202 0.17489,1.50102 0.47615,1.19772 0.30126,-0.30325 0.33337,-1.0903 0.0714,-1.74907 z m -97.40125,-10.47168 c -0.62322,-0.25293 -1.643275,-0.25293 -2.26656,0 -0.623214,0.25293 -0.113504,0.4606 1.133278,0.4606 1.246572,0 1.756562,-0.20695 1.133282,-0.4606 z m 4.23093,0.34635 c -0.20774,-0.14228 -1.19375,-0.86063 -2.19103,-1.59701 -1.67725,-1.23839 -1.71994,-1.21898 -0.56896,0.25796 0.6846,0.87838 1.67033,1.59702 2.19103,1.59702 0.52041,0 0.77669,-0.11641 0.56896,-0.25797 z m 3.45644,-1.20568 c -0.30125,-0.30324 -1.08323,-0.33557 -1.73764,-0.0719 -0.7233,0.29102 -0.50828,0.50731 0.54754,0.55114 0.95566,0.0431 1.49114,-0.17605 1.18989,-0.47928 z m 4.09872,-0.96562 c -0.62321,-0.25293 -1.64327,-0.25293 -2.26656,0 -0.62321,0.25294 -0.1135,0.4606 1.13328,0.4606 1.24657,0 1.75657,-0.20694 1.13328,-0.4606 z M 96.85634,146.8857 c -2.202236,-2.25861 -4.208013,-4.10661 -4.457371,-4.10661 -0.249143,0 1.348511,1.848 3.550749,4.10661 2.202235,2.25867 4.208012,4.10661 4.457302,4.10661 0.24914,0 -1.348443,-1.84794 -3.55068,-4.10661 z m 99.42231,-5.24734 c -0.25129,-0.62731 -0.45759,-0.11425 -0.45759,1.14073 0,1.25475 0.2056,1.7681 0.45759,1.14072 0.25129,-0.62731 0.25129,-1.65407 0,-2.28145 z M 78.270576,137.3036 c 0.722656,-1.17701 -4.083586,-1.17701 -5.893047,0 -1.013705,0.65965 -0.507566,0.88823 1.98636,0.89865 1.840515,0.007 3.598507,-0.39666 3.906687,-0.89865 z m 40.945144,-2.0533 c -0.25128,-0.62731 -0.45759,-0.11425 -0.45759,1.14072 0,1.25484 0.2056,1.76811 0.45759,1.14073 0.25129,-0.62731 0.25129,-1.65407 0,-2.28145 z m -35.29767,1.50195 c -0.301256,-0.30324 -1.083236,-0.33558 -1.737646,-0.0718 -0.7233,0.29102 -0.50828,0.50732 0.547543,0.55114 0.955665,0.0431 1.491144,-0.17604 1.189889,-0.47928 z m 111.48182,-5.59114 c -0.22987,-0.88794 -0.43332,-0.38228 -0.45118,1.12334 -0.0214,1.50576 0.16919,2.23222 0.41762,1.6144 0.24843,-0.61797 0.26343,-1.84988 0.0356,-2.73774 z m -75.25868,-4.06695 c -0.28912,-0.72798 -0.50399,-0.51162 -0.54754,0.55114 -0.0428,0.96202 0.1749,1.50102 0.47616,1.19772 0.30125,-0.30325 0.33338,-1.09028 0.0714,-1.74907 z m 0.90663,-7.30064 c -0.28912,-0.72798 -0.504,-0.51162 -0.54755,0.55114 -0.0428,0.96202 0.1749,1.50101 0.47616,1.19771 0.30125,-0.30324 0.33338,-1.09029 0.0714,-1.74907 z m 0,-8.21322 c -0.28912,-0.72798 -0.504,-0.51162 -0.54755,0.55114 -0.0428,0.96202 0.1749,1.50101 0.47616,1.1977 0.30125,-0.30323 0.33338,-1.09028 0.0714,-1.74906 z m -5.58173,-0.56551 c -0.27913,-0.28096 -1.01071,-5.8e-4 -1.62571,0.62299 -0.8887,0.9013 -0.78455,1.00614 0.50757,0.51091 0.89413,-0.34277 1.39727,-0.85295 1.11814,-1.1339 z m 2.24257,-2.99183 c 0,-0.42755 0.6789,-0.51521 1.50864,-0.19473 0.94153,0.36359 1.28561,0.21916 0.9154,-0.38372 -0.93261,-1.5189 15.19585,-11.51389 22.50809,-13.948539 1.99456,-0.663957 3.11649,-1.379866 2.4932,-1.590693 -2.00806,-0.679046 -22.35117,10.513062 -29.23857,16.086212 -2.1991,1.77938 -2.20581,1.81876 -0.2263,1.32137 1.12192,-0.28168 2.0399,-0.8625 2.0399,-1.29011 z m 28.31597,-11.992316 c 2.35972,-1.053491 7.05152,-2.418625 10.42616,-3.033575 l 6.13569,-1.118091 -4.5331,-0.09126 c -5.99465,-0.120719 -13.01104,1.833137 -21.19941,5.904252 -5.68011,2.82411 -12.14718,6.71099 -13.60178,8.17514 -0.34694,0.34922 9.05224,-3.71082 22.77244,-9.836252 z m 41.49397,3.512357 c 0,-0.189701 -0.71395,-0.908126 -1.58659,-1.597016 -1.43796,-1.135121 -1.47,-1.102857 -0.34265,0.344912 1.18438,1.52013 1.92888,2.003583 1.92888,1.252464 z m -11.09555,-7.583112 c -0.86679,-0.228504 -2.49872,-0.236409 -3.6265,-0.02155 -1.12779,0.218445 -0.41833,0.405273 1.57603,0.415333 1.99457,0.0072 2.91725,-0.168145 2.05047,-0.39665 z m -18.0151,-1.853688 c 5.54197,-0.363595 7.43524,-0.218445 6.97279,0.534615 -0.74851,1.219048 2.04568,1.388559 3.85535,0.233534 3.37036,-2.150457 -13.45407,-2.597837 -19.34232,-0.514494 -1.99458,0.705633 -2.60658,1.049755 -1.35994,0.764339 1.24658,-0.285271 5.68995,-0.743573 9.87412,-1.01821 z m 73.30851,148.941609 c -1.37128,-2.29496 -2.49321,-4.60387 -2.49321,-5.13072 0,-0.52671 -1.8855,-3.17944 -4.18995,-5.89455 -2.30447,-2.71518 -3.79933,-4.93663 -3.32189,-4.93663 1.67961,0 7.82608,7.81219 9.96172,12.66144 1.18803,2.69743 2.38599,4.67701 2.66218,4.39907 0.79347,-0.79876 -4.98956,-11.11501 -8.38069,-14.95022 -1.69195,-1.91354 -3.07024,-3.88982 -3.0628,-4.39174 0.0286,-2.01702 8.16465,8.39351 10.78388,13.80058 2.98521,6.16287 3.29024,7.14486 1.96251,6.31887 -0.46117,-0.28671 -0.97087,0.11282 -1.13328,0.88771 -0.18418,0.87889 -1.23329,-0.16095 -2.78847,-2.76381 z m -38.79917,-14.64282 c -1.858,-2.25344 1.38856,-4.52131 8.19609,-5.72541 3.23863,-0.57269 6.01662,-1.42865 6.17331,-1.90176 0.46759,-1.41263 14.68358,1.15258 14.68358,2.64958 0,0.36718 -1.65413,0.22275 -3.67575,-0.32048 -2.56053,-0.68768 -3.86714,-0.69701 -4.30646,-0.0288 -0.54041,0.82018 -6.20059,4.00874 -7.11635,4.00874 -0.17275,0 -0.3141,-0.38371 -0.3141,-0.85351 0,-0.46923 1.42789,-1.37326 3.17318,-2.00847 3.74949,-1.36477 4.28025,-3.0963 0.67961,-2.21815 -1.37128,0.33414 -4.32917,0.96302 -6.57302,1.3969 -5.44116,1.05198 -9.06622,2.5157 -9.06622,3.66067 0,0.5145 0.40834,0.93514 0.90662,0.93514 0.49899,0 0.90663,-0.41102 0.90663,-0.91258 0,-0.50228 0.62606,-0.91258 1.39184,-0.91258 1.11085,0 1.19596,0.36862 0.42119,1.82516 -1.1582,2.17834 -3.85501,2.37831 -5.48079,0.40671 z m 9.87877,-2.46066 c 0.68603,-0.69055 1.34758,-0.74078 1.93759,-0.1466 0.59038,0.59426 0.23415,0.95182 -1.04183,1.04861 -1.4593,0.1107 -1.68046,-0.1121 -0.89576,-0.90173 z m 14.64109,-0.68336 c -1.17197,-0.76241 -1.14806,-0.88658 0.17277,-0.89864 0.84322,-0.007 1.78525,0.39665 2.09343,0.89864 0.70888,1.15495 -0.49114,1.15495 -2.26656,0 z m -7.16632,-8.44137 c 0.58111,-1.1293 2.43168,-4.00487 4.11171,-6.39015 1.68004,-2.38528 3.05647,-4.64395 3.05882,-5.0192 0.003,-0.37508 1.22623,-1.99473 2.71987,-3.59872 1.49358,-1.60406 2.71566,-3.14798 2.71566,-3.43102 0,-1.96981 11.13819,-15.00655 17.09112,-20.00441 9.26005,-7.77425 12.84391,-9.3704 17.5383,-7.81089 1.89676,0.63018 3.44873,1.4906 3.44873,1.91218 0,1.0642 -1.58623,0.96201 -2.26656,-0.14587 -1.29025,-2.10138 -7.11741,-0.91453 -11.94643,2.43313 -2.65433,1.84018 -4.82609,3.6504 -4.82609,4.02284 0,0.37221 -1.73393,1.78269 -3.85315,3.13402 -2.60864,1.66334 -5.71599,5.24935 -9.62068,11.10245 -3.17212,4.75504 -6.33394,8.86431 -7.02633,9.13177 -0.69247,0.2673 -1.25878,1.0583 -1.25878,1.75746 0,0.69917 -0.40834,1.27122 -0.90662,1.27122 -0.499,0 -0.90662,0.46132 -0.90662,1.02482 0,1.08755 -7.94431,12.66389 -8.69066,12.66389 -0.242,0 0.0356,-0.92401 0.6175,-2.05331 z m 2.63322,1.33811 c 0,-0.47066 0.94502,-2.24725 2.10007,-3.94852 1.15505,-1.70128 5.28582,-7.81579 9.17952,-13.5879 7.38104,-10.94169 17.89773,-22.04822 24.77771,-26.16749 5.4361,-3.25475 8.94829,-2.49062 12.28188,2.67207 1.37614,2.1312 2.71844,4.90157 2.98294,6.1564 0.26413,1.25476 0.86057,3.22478 1.32473,4.37772 1.11215,2.76275 1.12357,6.7084 0.0142,4.74808 -0.42619,-0.75284 -1.07018,-2.80623 -1.43096,-4.56291 -1.33268,-6.48923 -4.1175,-11.59364 -7.25242,-13.29298 -3.03147,-1.64329 -3.04283,-1.64171 -6.95002,0.96101 -5.95529,3.96685 -19.80142,17.23376 -19.80142,18.97297 0,0.4757 -1.83972,3.32892 -4.08822,6.33978 -2.24857,3.01087 -4.7844,6.66048 -5.63526,8.11033 -0.85081,1.44978 -1.86694,2.63599 -2.25807,2.63599 -0.3912,0 -0.71102,0.45414 -0.71102,1.00901 0,0.55474 -1.01998,2.22907 -2.26656,3.72031 -1.24664,1.49124 -2.26655,2.32651 -2.26655,1.85613 z M 11.298645,201.86863 c -0.744214,-2.79508 -0.705309,-4.33554 0.108504,-4.33066 0.374071,0.002 0.752926,1.43957 0.84216,3.19403 0.186322,3.669 -0.164905,4.08893 -0.950669,1.13663 z m 28.554974,-1.59701 c -0.02142,-0.75284 0.527554,-2.60086 1.212661,-4.10661 0.685321,-1.50576 1.260133,-2.12172 1.278195,-1.36888 0.02142,0.75285 -0.527555,2.60085 -1.212662,4.10662 -0.685321,1.50576 -1.260133,2.12171 -1.278194,1.36887 z m -25.447328,-5.47549 c -0.139919,-3.19137 -0.354083,-3.69983 -0.959235,-2.28145 -0.628211,1.4722 -0.774056,1.20756 -0.752497,-1.36887 0.01428,-1.75675 0.353368,-4.22064 0.752497,-5.47548 0.66676,-2.09613 0.733223,-2.12085 0.816245,-0.30396 0.04997,1.08748 0.556824,2.13379 1.12714,2.32508 0.761491,0.2558 0.792403,1.79009 0.116363,5.77971 l -0.920401,5.4318 z m 24.197045,0.68408 c 0.494716,-0.62731 1.39163,-2.78338 1.993142,-4.79105 1.975225,-6.59292 1.752209,-6.24737 3.233145,-5.0102 1.778551,1.48578 1.714088,4.02562 -0.141347,5.57572 -1.330381,1.1114 -1.428824,1.00075 -0.915332,-1.02899 0.316247,-1.25082 -0.287692,-0.32336 -1.342301,2.06049 -1.054824,2.38414 -2.324809,4.33476 -2.822238,4.33476 -0.598942,0 -0.60037,-0.38516 -0.005,-1.14073 z m 228.769604,-2.12933 c 0.0428,-1.06312 0.25841,-1.27934 0.54753,-0.55114 0.26199,0.65893 0.22988,1.44583 -0.0714,1.74906 -0.30126,0.30324 -0.51542,-0.23568 -0.47615,-1.19771 z m 1.40647,-1.521 c -0.73265,-2.75189 -0.7046,-3.42217 0.14206,-3.42217 0.39264,0 0.80704,1.23198 0.92104,2.73774 0.24487,3.23399 -0.29268,3.57983 -1.06339,0.68408 z m -1.37286,-6.40041 c -0.057,-0.88521 -0.47115,-2.32249 -0.91869,-3.19404 -2.40426,-4.68304 -5.37962,-14.04203 -3.98528,-12.53562 1.57203,1.69833 5.85029,14.08672 5.42825,15.71852 -0.39692,1.53608 -0.42476,1.53665 -0.52399,0.0144 z M 45.221253,184.69178 c -0.02142,-0.78891 0.615362,-3.37784 1.419472,-5.75306 0.804038,-2.37522 1.268342,-4.51347 1.031764,-4.7516 -0.236292,-0.23857 -0.950454,1.43728 -1.586304,3.72325 -0.636063,2.28598 -1.577452,4.4184 -2.09237,4.73882 -0.564676,0.35137 -0.715375,0.002 -0.379069,-0.87903 0.306253,-0.80386 1.027411,-3.21918 1.602081,-5.36741 0.574671,-2.14823 1.868642,-5.76715 2.875564,-8.04213 1.006851,-2.27498 2.442884,-5.57357 3.191169,-7.33032 5.229928,-12.2786 8.015044,-16.5724 13.906236,-21.4391 l 2.201451,-1.81863 -1.888845,2.27491 c -1.038833,1.25117 -2.799109,3.30153 -3.911613,4.55637 -2.625137,2.96086 -7.350283,11.26929 -7.329152,12.88722 0.0072,0.69198 1.221942,-0.94348 2.695311,-3.63386 1.473369,-2.6904 3.607858,-5.86302 4.74335,-7.05023 1.135419,-1.18722 2.812386,-3.02416 3.726576,-4.08203 0.914189,-1.05795 1.930749,-1.65315 2.258989,-1.32275 0.328383,0.33054 -0.113504,1.00104 -0.982151,1.49031 -0.86843,0.48935 -1.579023,1.34092 -1.579023,1.89264 0,0.55186 -1.325953,2.30064 -2.946522,3.88644 -1.620571,1.5858 -3.762484,4.60299 -4.75977,6.70495 -1.080808,2.27793 -2.282761,3.6458 -2.975578,3.38625 -0.651768,-0.24431 -1.547968,0.58563 -2.039901,1.88803 -1.194315,3.16199 -1.136633,3.2955 0.876997,2.02974 0.965088,-0.60647 1.552966,-1.43145 1.306464,-1.83292 -0.246287,-0.40168 -0.01428,-0.72993 0.51185,-0.72993 1.64991,0 1.047399,2.88563 -0.698172,3.34523 -1.094014,0.28814 -2.04811,1.96657 -2.803106,4.93167 -0.629638,2.4723 -1.515058,4.72558 -1.96787,5.00733 -0.452598,0.28168 -0.823742,1.20662 -0.824098,2.05539 -10e-4,2.01874 -3.527977,11.10797 -3.583374,9.23445 z m 6.201228,-20.01116 c 0.03569,-1.5641 -2.103579,3.10608 -2.953948,6.44699 -0.31125,1.22242 0.219159,0.57987 1.178181,-1.4278 0.959235,-2.00768 1.758276,-4.26635 1.775767,-5.01919 z m -35.255557,8.77722 c 0,-1.25483 0.408338,-2.53525 0.906623,-2.84545 0.511849,-0.31832 0.906622,0.42898 0.906622,1.71745 0,1.25483 -0.408337,2.53525 -0.906622,2.84545 -0.51185,0.31832 -0.906623,-0.42898 -0.906623,-1.71745 z M 272.67175,125.6678 c -0.0358,-1.88221 -0.16777,-4.03813 -0.28769,-4.79104 -0.11989,-0.75284 0.0642,-2.60086 0.41548,-4.10661 0.42688,-1.84191 0.66889,-0.2745 0.74121,4.79104 0.057,4.14082 -0.0971,7.52879 -0.34623,7.52879 -0.24915,0 -0.48473,-1.53995 -0.52256,-3.42218 z"
       id="path21"
       inkscape:connector-curvature="0" />
    <path
       style="fill:#b52b1e;fill-opacity:1;stroke-width:1.01015258"
       d="M 167.43716,940.28403 C 148.39837,937.09928 124.38439,925.3122 110.22219,912.2005 90.164994,893.63107 80.78394,866.83495 78.073782,820.37152 c -2.105107,-36.09034 3.275856,-124.50671 7.496782,-123.18207 0.63956,0.20071 2.196423,3.74652 3.459696,7.87958 13.86711,45.36912 22.79953,63.98818 40.64566,84.72325 6.85172,7.96089 11.49144,11.17974 16.1147,11.17974 4.90248,0 8.42878,-3.15247 15.60013,-13.94633 12.18715,-18.34335 48.1232,-87.58468 74.54743,-143.63746 26.25547,-55.6948 49.21492,-93.54617 66.30766,-109.31598 13.54037,-12.49238 19.87797,-10.29012 46.94603,16.31336 13.41231,13.1821 22.90963,23.82302 22.90963,25.66824 0,0.36537 -1.33793,0.66431 -2.97319,0.66431 -1.92727,0 -3.52635,0.78977 -4.54568,2.24507 -2.04604,2.92113 -2.05957,10.23531 -0.022,11.92629 0.85274,0.70771 5.14446,1.60275 9.53715,1.98896 9.24077,0.81248 11.76572,2.163 16.26197,8.69807 3.96481,5.76266 39.22149,71.77587 43.31189,81.09547 1.63006,3.71395 4.08641,10.62672 5.45856,15.36171 2.40588,8.30219 3.50021,14.28217 9.225,50.41036 3.64057,22.97499 6.13734,33.07054 9.15833,37.03127 2.92832,3.83923 12.85783,11.10631 20.14897,14.74637 2.77792,1.38686 9.59645,4.20302 15.15229,6.25813 11.24513,4.15959 16.80922,7.37995 19.28844,11.16374 2.22608,3.39742 0.54412,7.50581 -4.80834,11.74505 -2.17118,1.71961 -7.78895,7.797 -12.48391,13.50532 -9.39788,11.42629 -15.12434,15.7553 -24.97904,18.88328 -11.54906,3.66577 -24.76326,1.00167 -31.7992,-6.41101 -2.24105,-2.36104 -6.93505,-11.82103 -14.97484,-30.17931 -17.79864,-40.642 -30.7925,-65.37304 -51.08472,-97.22897 -15.10476,-23.71228 -22.05592,-32.25446 -30.56021,-37.55495 -14.08113,-8.77639 -35.44008,-16.71021 -44.9862,-16.71021 -10.96091,0 -16.92082,6.47226 -25.33926,27.51759 -9.84863,24.62068 -13.79788,45.91267 -20.70008,111.60245 -2.86395,27.25676 -4.47107,37.55535 -8.13084,52.103 -2.70739,10.76193 -8.33067,26.53204 -12.31838,34.54606 -6.71134,13.48764 -20.46148,30.44811 -29.56263,36.46478 -7.23008,4.77973 -20.17563,6.49227 -32.9384,4.35735 z"
       id="path25"
       inkscape:connector-curvature="0"
       transform="scale(0.26458333)" />
    <path
       style="fill:#000000;fill-opacity:0;stroke-width:1.01015258"
       d="m 533.7181,802.99226 c -8.01075,-1.35918 -39.67132,-10.2507 -44.92321,-12.61617 -15.45841,-6.96254 -22.69287,-18.47252 -26.83335,-42.69169 -2.41505,-14.12655 -2.54374,-22.22498 -0.40178,-25.28306 1.27846,-1.82526 1.94806,-2.04897 3.55642,-1.1882 2.84112,1.52052 3.95996,0.38574 3.95996,-4.01639 0,-5.30265 -2.36697,-11.53508 -7.19535,-18.94597 -5.6526,-8.67594 -6.85616,-13.50501 -8.09102,-32.46372 -1.5518,-23.8246 -0.79479,-75.53183 1.16247,-79.4023 3.09561,-6.12156 12.01335,-8.77115 69.68229,-20.7036 18.61206,-3.85107 52.25014,-11.09924 74.75129,-16.10704 46.2499,-10.29325 77.2836,-16.61231 89.90357,-18.30609 21.61442,-2.90096 28.44881,-6.15868 25.2926,-12.0561 -0.59581,-1.11329 -2.95637,-2.52852 -5.24569,-3.14497 -6.98175,-1.87999 -18.83093,0.1098 -88.2322,14.81648 -78.85107,16.70916 -164.31257,34.72304 -164.73322,34.72304 -0.84385,0 -0.38408,-35.10912 0.61513,-46.97209 2.7323,-32.43876 7.96224,-66.09209 12.15645,-78.2236 1.62066,-4.6877 3.24782,-11.46252 3.6159,-15.05517 1.16591,-11.38 4.9966,-13.92846 48.83411,-32.48819 14.71659,-6.23064 30.30969,-13.11448 34.65135,-15.29742 9.33433,-4.69322 19.37395,-7.47388 46.67753,-12.92824 32.3422,-6.46091 46.75559,-8.39455 59.51208,-7.98388 9.79121,0.31521 11.92256,0.7155 16.95911,3.1851 10.23374,5.01796 18.68525,16.74778 29.70591,41.22867 18.36529,40.79602 17.82985,37.35959 27.68242,177.6668 1.6971,24.1679 3.73666,51.47537 4.53235,60.68326 3.68481,42.6417 6.16479,78.79771 8.18311,119.30308 l 0.68845,13.81625 -3.93119,1.68164 c -30.41739,13.01167 -47.43647,15.71948 -120.60381,19.18854 -43.79847,2.07661 -55.58251,3.53421 -56.92845,7.04168 -0.2962,0.7719 -2.26832,1.88381 -4.38247,2.47089 -4.32929,1.2022 -23.68372,1.24548 -30.62076,0.0685 z m 58.08598,-24.25462 c 84.99561,-8.80684 107.97132,-11.54988 123.1317,-14.70057 10.21286,-2.12247 19.14751,-5.22871 21.59308,-7.5071 4.57404,-4.26137 3.6612,-9.37097 -1.87183,-10.47759 -3.62932,-0.72586 -3.54029,1.64798 -0.85266,-22.73359 2.93725,-26.64607 -3.93492,-84.74379 -13.71832,-115.97549 -3.90492,-12.46572 -7.42627,-18.05425 -14.50706,-23.02331 -3.67982,-2.58237 -5.24413,-3.03993 -10.0909,-2.95156 -15.25853,0.27819 -46.0274,18.63782 -60.7244,36.23393 -15.76975,18.88047 -50.52237,42.95344 -67.73523,46.91984 -10.04814,2.31543 -20.27552,0.70431 -38.21745,-6.02036 -10.65131,-3.99213 -11.67321,-4.1942 -15.46545,-3.05801 -4.97722,1.49121 -12.61411,8.32628 -13.41227,12.00407 -0.7364,3.39316 1.88193,13.62847 4.61945,18.05786 1.13625,1.8385 3.17069,3.62 4.52098,3.95891 3.98248,0.99953 5.45928,-1.13231 5.45928,-7.88075 0,-3.30199 0.47057,-6.88288 1.0457,-7.95752 1.36987,-2.55964 4.22366,-2.4836 6.62643,0.17657 1.68142,1.86154 1.90519,3.6148 1.77274,13.8896 -0.18053,14.00441 -2.29597,27.27742 -6.54309,41.05355 -4.09363,13.27827 -7.30811,20.20097 -14.97227,32.24421 -3.48476,5.47586 -7.18476,11.82526 -8.22221,14.10976 -1.86601,4.10902 -2.55943,10.7643 -1.25722,12.06651 1.43493,1.43493 13.81343,0.37911 98.821,-8.42896 z M 546.66554,623.74068 c 7.12449,-2.23117 12.70276,-7.3545 14.32808,-13.15952 1.94075,-6.93172 0.96663,-27.18136 -1.55611,-32.34777 -2.53641,-5.19441 -7.18756,-7.5725 -14.81457,-7.57458 -11.4643,-0.003 -23.63554,6.77351 -28.01436,15.59763 -2.18159,4.39631 -2.52036,6.64786 -2.90027,19.27581 -0.45854,15.24154 0.12081,17.9802 4.17373,19.72957 3.30594,1.42696 22.63082,0.40568 28.7835,-1.52114 z m 103.555,-26.7518 c 3.82245,-1.4533 9.68087,-7.03582 11.85424,-11.296 3.60444,-7.06526 2.02669,-15.80494 -3.50786,-19.43132 -3.93578,-2.57881 -6.77408,-2.01328 -12.13688,2.41827 -5.11583,4.22748 -7.8791,4.77302 -8.47603,1.67341 -0.19024,-0.98782 1.97615,-6.70884 4.81419,-12.71337 5.42429,-11.47631 5.64768,-13.8285 1.41418,-14.89105 -2.86631,-0.71939 -10.50827,1.94726 -12.78274,4.46053 -6.14325,6.78822 -6.97084,30.50207 -1.4521,41.60858 3.87554,7.79953 12.30932,11.19873 20.273,8.17095 z"
       id="path27"
       inkscape:connector-curvature="0"
       transform="scale(0.26458333)" />
    <path
       style="fill:#b62b1e;fill-opacity:1;stroke-width:1.01015258"
       d="m 537.78422,803.58259 c -10.58902,-1.44083 -43.56095,-10.6206 -50.72777,-14.12319 -12.10326,-5.91516 -18.82047,-15.21019 -23.12546,-32.00017 -2.61244,-10.18882 -4.2814,-29.03826 -3.01711,-34.07559 0.63338,-2.52357 0.99895,-2.70988 4.15533,-2.11774 3.08537,0.57882 3.52882,0.37848 4.08727,-1.84655 0.95932,-3.82225 -2.00561,-12.34402 -7.56587,-21.74575 -2.76602,-4.67701 -5.51753,-10.78098 -6.11446,-13.56435 -2.99334,-13.95744 -3.72193,-86.07301 -0.96909,-95.91984 2.21322,-7.91665 6.79752,-9.38412 70.14518,-22.45406 15.00076,-3.09497 47.50242,-10.1167 72.2259,-15.60385 48.0947,-10.67418 81.27497,-17.40415 94.64418,-19.19671 16.92971,-2.26998 23.54367,-4.99907 23.54367,-9.71472 0,-3.68939 -3.62906,-5.45656 -11.2056,-5.45656 -9.11893,0 -22.89178,2.48457 -76.17259,13.74127 -25.00128,5.28203 -73.30971,15.48802 -107.35208,22.67996 -34.04236,7.19193 -62.56654,13.07624 -63.38707,13.07624 -1.23793,0 -1.49116,-2.19227 -1.48776,-12.87944 0.011,-34.57146 7.41575,-93.95992 14.15793,-113.5515 1.65581,-4.81149 3.01226,-10.72089 3.01434,-13.13198 0.009,-10.39969 6.00376,-14.53397 45.24316,-31.20167 15.9496,-6.7749 32.50771,-14.07896 36.79579,-16.23123 10.19385,-5.11648 20.72978,-8.09785 47.76187,-13.51526 55.19629,-11.06169 71.54774,-11.12066 83.838,-0.30235 8.35743,7.35652 17.48182,23.32347 29.07948,50.88685 11.46516,27.24843 11.94465,30.67665 19.91005,142.35044 2.77398,38.89087 5.94308,81.16576 7.04244,93.94419 4.17958,48.58117 8.47244,119.72723 7.29459,120.8942 -0.38084,0.37733 -5.69269,2.72166 -11.80412,5.20962 -23.04884,9.3832 -47.53271,12.74734 -115.15739,15.8229 -38.27377,1.7407 -52.49199,3.47536 -53.67109,6.54805 -1.31796,3.43455 -17.90597,5.28519 -31.18172,3.47879 z m -20.70813,-17.07692 c 4.72246,-0.53476 41.76981,-4.38964 82.32743,-8.56641 76.80493,-7.90965 90.60628,-9.51371 109.09648,-12.67978 21.18382,-3.62731 30.80965,-8.03147 30.80965,-14.09654 0,-3.2344 -1.45386,-4.74285 -5.05076,-5.2404 -2.96821,-0.41058 -3.13184,-2.50916 -1.19466,-15.32217 4.93032,-32.61046 -5.20343,-110.6976 -17.53246,-135.09891 -2.5237,-4.99486 -9.14514,-11.56703 -13.21126,-13.11297 -13.38699,-5.08972 -47.50039,12.55349 -67.05657,34.68121 -10.99872,12.445 -19.78731,20.07167 -34.69435,30.10752 -30.93684,20.82759 -43.08997,22.67757 -72.46978,11.03157 -9.10697,-3.60996 -10.68283,-3.95204 -14.04057,-3.0479 -3.98295,1.0725 -10.48012,5.7041 -12.95174,9.23284 -3.34722,4.77882 2.17334,23.2342 7.53619,25.19368 4.01906,1.46848 5.78391,-1.08806 6.23258,-9.02839 0.47623,-8.42798 1.87303,-10.34037 5.71426,-7.8235 3.45291,2.26243 3.92556,5.01912 3.28759,19.17439 -1.13965,25.28606 -8.86481,50.48189 -20.94433,68.31051 -7.63172,11.26395 -11.92134,21.96805 -10.39627,25.94233 0.62262,1.62252 11.85263,1.77945 24.53857,0.34292 z m 18.41475,-160.56811 c 20.73342,-2.67365 27.07849,-9.40127 27.02458,-28.65395 -0.0248,-8.88459 -2.52745,-19.7589 -5.20255,-22.60642 -6.84169,-7.28264 -25.15677,-4.62226 -36.07293,5.23984 -5.92057,5.34887 -7.55686,11.45278 -7.63678,28.48768 -0.0707,15.07069 0.38539,16.18023 7.19241,17.49712 5.34146,1.03338 6.92887,1.03724 14.69527,0.0358 z m 115.61391,-29.45065 c 9.14697,-4.42797 14.95802,-15.15019 12.55597,-23.16753 -1.50117,-5.01043 -7.07004,-9.5696 -10.60518,-8.68233 -1.33757,0.33571 -4.33988,2.20442 -6.67181,4.15269 -9.15507,7.64885 -10.55982,3.07455 -3.47143,-11.30413 5.7637,-11.69158 5.6718,-13.83171 -0.61155,-14.24188 -5.77524,-0.37699 -10.73976,2.68633 -13.6028,8.39353 -1.69816,3.38511 -2.02,6.04068 -2.01844,16.65418 0.003,17.58926 2.72998,24.61952 11.00988,28.3798 5.35979,2.43413 8.08366,2.3967 13.41536,-0.18433 z"
       id="path29"
       inkscape:connector-curvature="0"
       transform="scale(0.26458333)" />
    <path
       style="fill:#4b4143;fill-opacity:1;stroke-width:1.01015258"
       d="m 518.59041,760.16426 c 8.36659,-16.59317 13.81728,-33.10644 18.87816,-57.19276 3.87472,-18.44104 5.24778,-22.23798 8.71229,-24.09214 2.22949,-1.19318 12.77513,-0.759 15.00265,0.61768 1.57119,0.97105 0.70228,6.36864 -4.05546,25.19213 -2.11255,8.3581 -4.00256,17.45566 -4.20002,20.21679 -0.33776,4.72311 -0.17965,5.10825 2.67145,6.50716 2.27775,1.1176 6.79397,1.47262 18.18274,1.42938 16.25051,-0.0617 22.15796,-1.25458 24.1451,-4.87556 1.58882,-2.89515 2.70328,-3.50262 6.45793,-3.52007 2.26795,-0.0105 4.18182,0.83744 6.00503,2.66065 3.3488,3.3488 7.54464,4.34178 18.44526,4.36522 11.52123,0.0248 15.97941,-1.26004 16.70338,-4.8138 1.01303,-4.97265 2.96223,-7.77206 5.63034,-8.08622 3.26415,-0.38433 7.21837,2.76768 7.45707,5.94422 0.15542,2.06835 0.63146,2.38761 3.12648,2.09674 3.69337,-0.43056 13.42502,-3.65878 19.1693,-6.35891 6.1447,-2.88835 9.21791,-6.05505 10.50114,-10.82065 2.06778,-7.67911 4.63536,-6.67764 6.45017,2.51586 1.07546,5.44806 1.39838,5.94177 4.08714,6.24872 1.60569,0.18331 6.22291,-0.83947 10.26049,-2.27284 4.03759,-1.43337 7.89012,-2.60613 8.56119,-2.60613 1.48123,0 0.73512,7.38476 -2.06034,20.3925 -2.15286,10.01762 -4.073,14.28688 -7.40866,16.4725 -4.95199,3.24467 -54.12286,9.38237 -133.49041,16.66281 -41.7252,3.82748 -54.89875,5.23267 -62.94892,6.71461 l -3.34992,0.61668 z"
       id="path31"
       inkscape:connector-curvature="0"
       transform="scale(0.26458333)" />
    <path
       style="fill:#4b4143;fill-opacity:1;stroke-width:1.01015258"
       d="m 314.17302,836.12648 c -7.34169,-3.39525 -10.78986,-7.48032 -11.36482,-13.46402 -0.62006,-6.45311 1.3709,-13.89323 9.79726,-36.61175 12.141,-32.73367 17.63754,-53.17613 19.27707,-71.69424 0.56438,-6.3746 1.46394,-12.02796 1.99901,-12.56302 1.5941,-1.59411 5.64932,2.98731 15.12009,17.08212 9.69774,14.43258 14.13218,19.69797 16.58937,19.69797 2.01163,0 2.01747,-0.12093 -0.33065,6.8504 -1.07013,3.17708 -2.65695,9.86763 -3.52627,14.86788 -0.86933,5.00026 -2.51371,12.45273 -3.65419,16.56106 -5.03734,18.14599 -20.30545,51.44307 -26.69575,58.21876 -2.82512,2.99549 -3.95314,3.49852 -7.73395,3.44881 -2.43452,-0.032 -6.69925,-1.10929 -9.47717,-2.39397 z"
       id="path33"
       inkscape:connector-curvature="0"
       transform="scale(0.26458333)" />
    <path
       style="fill:#4b4143;fill-opacity:1;stroke-width:1.01015258"
       d="m 291.02234,794.9052 c -2.27971,-3.47929 -4.22255,-9.48364 -9.72907,-30.06769 -5.63218,-21.05382 -6.27631,-29.25118 -3.39662,-43.22661 3.36344,-16.32312 11.91376,-32.7963 18.42197,-35.49209 3.71892,-1.54043 8.37062,0.22969 15.93037,6.06199 6.76916,5.22237 7.91033,8.05838 7.20308,17.90107 -1.25523,17.46895 -21.04547,83.5213 -25.92837,86.5391 -0.53911,0.33319 -1.66472,-0.4389 -2.50136,-1.71577 z"
       id="path35"
       inkscape:connector-curvature="0"
       transform="scale(0.26458333)" />
    <path
       style="fill:#1e3755;fill-opacity:1;stroke-width:1.01015258"
       d="m 354.03902,823.17382 c 8.87647,-18.43633 13.99311,-31.56714 17.19324,-44.12288 1.19363,-4.68324 2.88513,-9.89743 3.75887,-11.58706 l 1.58863,-3.07208 3.14182,3.64513 c 5.3843,6.24686 21.45883,37.98736 25.43473,50.22299 2.13148,6.55953 1.62229,7.67774 -5.20578,11.43212 -9.01839,4.95873 -32.42732,9.87788 -47.06771,9.8908 l -6.74706,0.006 z"
       id="path37"
       inkscape:connector-curvature="0"
       transform="scale(0.26458333)" />
    <path
       style="fill:#1e3755;fill-opacity:1;stroke-width:0.71428573"
       d="m 607.64101,924.81315 c -2.11084,-0.84864 -5.24601,-10.58589 -6.97514,-21.66343 l -0.50173,-3.21429 1.51584,1.36071 c 1.45224,1.30361 1.57447,1.30764 2.91322,0.0961 2.71953,-2.46114 6.74536,-17.33647 10.73,-39.64704 1.22551,-6.86178 2.82527,-13.82574 3.55502,-15.47547 2.52543,-5.70914 2.04386,-5.62 30.3624,-5.62 27.51315,0 28.23907,-0.10282 29.98352,-4.24684 l 0.91842,-2.18173 1.23126,4.1453 c 1.46843,4.94375 1.18339,6.16475 -1.32711,5.68484 -4.13034,-0.78957 -2.76552,5.05235 1.9842,8.49303 1.58317,1.14684 4.25108,2.43079 5.92868,2.85321 1.67759,0.42243 3.42068,1.21448 3.87352,1.76012 0.6727,0.81054 0.41525,0.99207 -1.40698,0.99207 -1.86483,0 -2.23031,0.27506 -2.23031,1.67854 0,2.26499 3.39868,6.80577 6.91446,9.23803 2.01065,1.39099 3.12623,2.83114 3.7148,4.79559 1.00572,3.3568 3.10815,5.00212 6.39181,5.00212 2.05339,0 2.32766,0.18827 1.82107,1.25 -1.04313,2.1862 -0.54255,7.58027 0.97771,10.53572 2.0953,4.07334 4.80245,6.37477 7.533,6.40403 1.90779,0.0204 2.49905,0.45192 3.54244,2.58506 3.41578,6.98339 3.02664,15.84114 -0.74232,16.89658 -2.47694,0.69363 -26.37894,0.64091 -58.7244,-0.12951 -26.67028,-0.63525 -40.51795,-0.0124 -47.79989,2.15015 -4.71698,1.4008 -4.68351,2.76662 0.12132,4.95011 l 3.75,1.70414 -3.57143,-0.0152 c -1.96428,-0.008 -3.98181,-0.18024 -4.48338,-0.38189 z m 109.12624,-10.44132 c 1.50923,-0.76038 1.81914,-1.47762 2.00161,-4.63233 0.24921,-4.3085 -0.70715,-4.84546 -3.4431,-1.93318 -1.87543,1.99631 -8.2526,4.20301 -14.2728,4.93883 -2.16071,0.26409 -4.89285,0.66937 -6.07143,0.90061 -4.23849,0.83162 0.42126,1.5452 10.35715,1.58608 6.40564,0.0264 10.24234,-0.26236 11.42857,-0.86001 z"
       id="path39"
       inkscape:connector-curvature="0"
       transform="scale(0.26458333)" />
    <path
       style="fill:#1e3755;fill-opacity:1;stroke-width:0.71428573"
       d="m 428.91011,922.30562 c 0,-0.19565 2.35988,-7.07684 5.24418,-15.29153 7.46023,-21.24724 11.45237,-29.92844 15.37745,-33.43936 2.07419,-1.85532 1.94013,-2.31259 -1.15735,-3.94781 l -2.67857,-1.41406 3.08267,-0.0316 c 3.82981,-0.0392 5.55191,0.8427 6.12807,3.13828 1.81707,7.23979 33.48541,-0.0267 42.21177,-9.68577 3.64242,-4.03172 3.26297,-4.98696 -1.24394,-3.13155 -0.83514,0.34382 -1.25,0.18752 -1.25,-0.47092 0,-1.53531 5.19312,-9.93628 5.98003,-9.67397 1.51745,0.50581 5.69964,14.76399 6.89819,23.51775 0.94238,6.88272 2.6801,10.8831 6.16528,14.193 2.47497,2.35048 2.55423,2.37412 2.18976,0.65305 -0.20799,-0.98215 -1.56647,-4.45945 -3.01885,-7.72734 -3.90802,-8.79311 -2.18574,-8.89145 2.27353,-0.12981 1.71246,3.36468 1.99883,4.77442 1.9951,9.82143 -0.004,5.56947 0.0806,5.89286 1.54357,5.89286 2.22221,0 3.17672,3.24128 3.57593,12.14286 0.53201,11.86288 -0.83726,13.09407 -15.82544,14.22943 -10.03611,0.76025 -77.49138,1.93979 -77.49138,1.35504 z"
       id="path41"
       inkscape:connector-curvature="0"
       transform="scale(0.26458333)" />
    <path
       style="fill:#4b4143;fill-opacity:1;stroke-width:1.42857146"
       d="m 241.09238,930.54568 c -3.49031,-9.20365 -3.17591,-26.78572 0.47898,-26.78572 0.70018,0 1.08762,-1.76785 0.86098,-3.92857 -0.29087,-2.77294 0.23914,-3.92857 1.80175,-3.92857 4.96545,0 10.80252,-19.72413 10.83752,-36.62124 l 0.0211,-10.19268 4.82343,4.47839 c 6.2854,5.83576 8.02803,10.90696 3.748,10.90696 -2.48699,0 -2.87735,0.59306 -2.11569,3.21428 1.93271,6.65137 8.66251,16.07303 11.80506,16.52701 2.52279,0.36444 2.96371,-0.0642 2.20419,-2.14286 -0.89019,-2.43622 -0.75598,-2.42855 2.14992,0.12299 1.70466,1.49677 3.09938,3.92113 3.09938,5.38748 0,1.46634 3.48095,6.25996 7.73545,10.65248 7.55324,7.7983 12.0199,9.38899 11.08467,3.94756 -0.42587,-2.47788 -0.19155,-2.44078 2.74709,0.43497 2.06656,2.02233 3.53331,5.64324 4.11144,10.14979 l 0.89877,7.00589 -5.94321,-0.66989 c -4.65098,-0.52423 -11.0085,1.07392 -29.23943,7.35021 -12.81292,4.41105 -24.71897,8.02009 -26.4579,8.02009 -2.13556,0 -3.64521,-1.27502 -4.65152,-3.92857 z"
       id="path43"
       inkscape:connector-curvature="0"
       transform="scale(0.26458333)" />
    <path
       style="fill:#b52b1e;fill-opacity:1;stroke-width:1.42857146"
       d="m 348.40767,836.97425 c 0.41991,-0.98214 4.4057,-9.76036 8.8573,-19.50714 4.4516,-9.74679 10.36567,-24.85393 13.14237,-33.57143 2.77671,-8.7175 5.51863,-16.36964 6.09315,-17.00476 2.6851,-2.96824 27.42547,45.38014 27.7073,54.14642 0.15829,4.92396 -0.29772,5.5444 -6.29611,8.56634 -12.50169,6.29824 -51.52996,12.1091 -49.50401,7.37057 z"
       id="path45"
       inkscape:connector-curvature="0"
       transform="scale(0.26458333)" />
    <path
       style="fill:#b52b1e;fill-opacity:1;stroke-width:1.42857146"
       d="m 606.87844,827.37523 c -2.65219,-1.13896 -3.21428,-2.50377 -3.21428,-7.80468 0,-4.70668 0.68246,-6.78959 2.55249,-7.7904 3.42877,-1.83502 72.70116,-7.91873 74.34311,-6.52903 0.97322,0.82371 -4.53591,18.6027 -6.3821,20.59619 -1.55723,1.68149 -7.97553,2.16716 -33.00902,2.49781 -17.83247,0.23554 -32.44572,-0.17779 -34.2902,-0.96989 z"
       id="path47"
       inkscape:connector-curvature="0"
       transform="scale(0.26458333)" />
    <path
       style="fill:#b52b1e;fill-opacity:1;stroke-width:1.42857146"
       d="m 547.94987,592.0833 c -1.96428,-1.01895 -4.69643,-1.86212 -6.07143,-1.87371 -1.375,-0.0116 -2.5,-1.07519 -2.5,-2.36357 0,-1.28838 -1.05891,-3.1168 -2.35314,-4.06317 -2.01265,-1.47169 -1.3446,-1.97461 4.61694,-3.47574 6.53925,-1.64661 7.12621,-1.56228 9.496,1.36429 2.61271,3.22656 3.26276,8.10349 1.43261,10.74799 -0.72624,1.0494 -2.1497,0.94587 -4.62098,-0.33609 z"
       id="path49"
       inkscape:connector-curvature="0"
       transform="scale(0.26458333)" />
    <path
       style="fill:#b52b1e;fill-opacity:1;stroke-width:1.42857146"
       d="m 639.37844,588.04568 c -1.47613,-1.77863 -1.31068,-2.14286 0.97342,-2.14286 1.5135,0 4.90836,-2.22499 7.54413,-4.94441 4.70308,-4.85235 7.19674,-5.37547 7.19674,-1.50974 0,2.84259 -8.35587,10.73986 -11.36354,10.73986 -1.41478,0 -3.37262,-0.96428 -4.35075,-2.14285 z"
       id="path51"
       inkscape:connector-curvature="0"
       transform="scale(0.26458333)" />
    <path
       style="fill:#b52b1e;fill-opacity:1;stroke-width:1.42857146"
       d="m 524.73559,617.77521 c -5.18344,-1.35457 -2.46093,-3.5455 3.21428,-2.58668 5.41379,0.91466 7.80704,-0.68084 4.28572,-2.85714 -1.83754,-1.13566 -1.86775,-6.42857 -0.0367,-6.42857 2.03298,0 6.09001,8.48452 5.18489,10.84322 -0.74978,1.95389 -7.1247,2.47261 -12.6482,1.02917 z"
       id="path53"
       inkscape:connector-curvature="0"
       transform="scale(0.26458333)" />
    <path
       style="fill:#4b4143;fill-opacity:1;stroke-width:1.42857146"
       d="m 350.20441,837.5121 c -0.44806,-0.72498 2.44377,-8.61579 6.42629,-17.53514 3.98252,-8.91935 9.75277,-23.48314 12.82279,-32.36398 7.73395,-22.37256 7.21869,-21.80963 12.46828,-13.62193 7.20458,11.23686 20.53153,40.07941 21.35467,46.21633 l 0.76213,5.6821 -7.68721,3.48865 c -11.24995,5.10551 -44.40667,10.94979 -46.14695,8.13397 z"
       id="path64"
       inkscape:connector-curvature="0"
       transform="scale(0.26458333)" />
    <path
       style="fill:#1e3755;fill-opacity:1;stroke-width:1.42857146"
       d="m 243.86565,933.17021 c -4.38777,-2.71179 -6.12602,-23.12602 -2.38978,-28.06578 1.15358,-1.52517 2.11787,-4.15069 2.14286,-5.83448 0.025,-1.6838 1.03874,-3.44262 2.25279,-3.90849 2.64979,-1.01682 6.83796,-10.44887 5.81888,-13.10453 -0.39758,-1.03609 0.0172,-2.13049 0.92171,-2.432 1.04406,-0.34802 1.85921,-5.89172 2.23236,-15.18184 l 0.58776,-14.63365 3.53285,3.30383 c 5.72622,5.35501 6.90445,8.48844 3.99247,10.61773 -3.20486,2.34345 -2.16713,6.691 3.44697,14.44104 3.35757,4.63499 5.03054,5.78168 7.96522,5.45953 3.00982,-0.33039 4.2215,0.57316 6.38364,4.7603 2.76254,5.34985 14.32259,17.50529 14.36123,15.10088 0.012,-0.74875 0.60589,-0.43841 1.31969,0.68964 1.04836,1.65678 1.71147,1.7077 3.44992,0.2649 2.58646,-2.14657 4.39865,0.48585 5.92107,8.60108 l 0.96617,5.1501 -8.97162,0.64894 c -5.08418,0.36776 -9.21479,1.37845 -9.53281,2.33251 -0.30865,0.92596 -1.16522,1.31024 -1.90349,0.85397 -0.73827,-0.45628 -9.52265,1.84048 -19.52085,5.1039 -9.99819,3.26342 -18.87969,6.14468 -19.73665,6.4028 -0.85697,0.25812 -2.31514,10e-4 -3.24039,-0.57038 z"
       id="path66"
       inkscape:connector-curvature="0"
       transform="scale(0.26458333)" />
  </g>
</svg>
