<?xml version="1.0" encoding="UTF-8" standalone="no"?>
<!-- Created with Inkscape (http://www.inkscape.org/) -->

<svg
   xmlns:dc="http://purl.org/dc/elements/1.1/"
   xmlns:cc="http://creativecommons.org/ns#"
   xmlns:rdf="http://www.w3.org/1999/02/22-rdf-syntax-ns#"
   xmlns:svg="http://www.w3.org/2000/svg"
   xmlns="http://www.w3.org/2000/svg"
   xmlns:sodipodi="http://sodipodi.sourceforge.net/DTD/sodipodi-0.dtd"
   xmlns:inkscape="http://www.inkscape.org/namespaces/inkscape"
   width="534.66003"
   height="533.99835"
   viewBox="0 0 501.2438 500.62346"
   id="svg2"
   version="1.1"
   inkscape:version="0.92.1 r15371"
   sodipodi:docname="MGTOW Sign.svg"
   inkscape:export-filename="E:\!MGTOW Archives\!MGTOW Archives Site\MGTOW Sign\MGTOW Sign 255x255.png"
   inkscape:export-xdpi="45.842838"
   inkscape:export-ydpi="45.842838">
  <title
     id="title3377">MGTOW Sign</title>
  <defs
     id="defs4" />
  <sodipodi:namedview
     id="base"
     pagecolor="#ffffff"
     bordercolor="#666666"
     borderopacity="1.0"
     inkscape:pageopacity="0.0"
     inkscape:pageshadow="2"
     inkscape:zoom="0.49497475"
     inkscape:cx="-186.85149"
     inkscape:cy="172.01503"
     inkscape:document-units="px"
     inkscape:current-layer="layer1"
     showgrid="true"
     inkscape:window-width="1920"
     inkscape:window-height="1018"
     inkscape:window-x="-8"
     inkscape:window-y="-8"
     inkscape:window-maximized="1"
     units="px"
     fit-margin-top="0"
     fit-margin-left="0"
     fit-margin-right="0"
     fit-margin-bottom="0" />
  <metadata
     id="metadata7">
    <rdf:RDF>
      <cc:Work
         rdf:about="">
        <dc:format>image/svg+xml</dc:format>
        <dc:type
           rdf:resource="http://purl.org/dc/dcmitype/StillImage" />
        <dc:title>MGTOW Sign</dc:title>
        <dc:creator>
          <cc:Agent>
            <dc:title>MGTOW Archives</dc:title>
          </cc:Agent>
        </dc:creator>
        <dc:publisher>
          <cc:Agent>
            <dc:title>MGTOWArchives.tk</dc:title>
          </cc:Agent>
        </dc:publisher>
        <dc:subject>
          <rdf:Bag />
        </dc:subject>
        <dc:description>MGTOW Sign
Converted to SVG by MGTOW Archives
MGTOWArchives.tk</dc:description>
        <dc:source>MGTOWArchives.tk</dc:source>
        <cc:license
           rdf:resource="http://creativecommons.org/licenses/by/4.0/" />
      </cc:Work>
      <cc:License
         rdf:about="http://creativecommons.org/licenses/by/4.0/">
        <cc:permits
           rdf:resource="http://creativecommons.org/ns#Reproduction" />
        <cc:permits
           rdf:resource="http://creativecommons.org/ns#Distribution" />
        <cc:requires
           rdf:resource="http://creativecommons.org/ns#Notice" />
        <cc:requires
           rdf:resource="http://creativecommons.org/ns#Attribution" />
        <cc:permits
           rdf:resource="http://creativecommons.org/ns#DerivativeWorks" />
      </cc:License>
    </rdf:RDF>
  </metadata>
  <g
     inkscape:label="Layer 1"
     inkscape:groupmode="layer"
     id="layer1"
     transform="translate(-1.2177,-0.44299)">
    <g
       id="g3369"
       transform="translate(1937.5538,392.98995)">
      <path
         style="fill:#fbe829"
         d="m -1811.34,-16.924307 -124.9961,-125.000773 125.311,-125.31094 125.3109,-125.31094 125.3109,125.31094 125.311,125.31094 -124.9961,125.000773 c -68.7479,68.750437 -125.2795,125.000787 -125.6258,125.000787 -0.3463,0 -56.8779,-56.25035 -125.6258,-125.000787 z"
         id="path3373"
         inkscape:connector-curvature="0" />
      <path
         style="fill:#000000"
         d="m -1811.34,-16.924307 -124.9961,-125.000773 125.311,-125.31094 125.3109,-125.31094 125.3109,125.31094 125.311,125.31094 -124.9961,125.000773 c -68.7479,68.750437 -125.2795,125.000787 -125.6258,125.000787 -0.3463,0 -56.8779,-56.25035 -125.6258,-125.000787 z m 243.7516,-7.50005 117.4959,-117.500823 -117.8109,-117.81084 -117.8108,-117.81084 -117.8108,117.81084 -117.8109,117.81084 117.4959,117.500823 c 64.6227,64.625462 117.7793,117.500837 118.1258,117.500837 0.3465,0 53.5031,-52.875375 118.1258,-117.500837 z m -139.3758,-111.874163 v -164.375 h 19.375 19.375 v 73.43254 73.43254 l 19.6635,-19.66356 19.6636,-19.66355 -6.8084,-6.89398 -6.8083,-6.89399 h 25.8948 25.8948 v 25.8948 25.8948 l -6.5866,-6.50475 -6.5865,-6.50474 -32.1635,32.18129 -32.1634,32.18129 v 65.92866 65.92865 h -19.375 -19.375 z"
         id="path3371"
         inkscape:connector-curvature="0" />
    </g>
  </g>
</svg>
